<svg viewBox="0 0 512 512" xmlns="http://www.w3.org/2000/svg" xmlns:xlink="http://www.w3.org/1999/xlink"><linearGradient id="linear-gradient" gradientUnits="userSpaceOnUse" x1="75.89" x2="424.16" y1="75.89" y2="424.16"><stop offset="0" stop-color="#09b7fd"/><stop offset="1" stop-color="#078ef4"/></linearGradient><linearGradient id="linear-gradient-2" gradientUnits="userSpaceOnUse" x1="183.98" x2="428.19" y1="183.6" y2="427.81"><stop offset="0" stop-color="#006cce"/><stop offset="1" stop-color="#006cce" stop-opacity="0"/></linearGradient><g id="Layer_2" data-name="Layer 2"><g id="Layer_1_copy_3" data-name="Layer 1 copy 3"><g id="_60" data-name="60"><circle cx="256" cy="256" fill="url(#linear-gradient)" r="256"/><path d="m494.28 349.78a256.83 256.83 0 0 1 -144 144.28l-219.52-219.56-3.43-28.5 12-19.06 25-9.27h53.19v-52.67l8-20.64 22.21-16.09h20.61l11.88 7.48z" fill="url(#linear-gradient-2)"/><path d="m217.52 347v-52.67h-53.19a38.33 38.33 0 0 1 -38.33-38.33 38.33 38.33 0 0 1 38.33-38.33h53.19v-52.67a38.33 38.33 0 0 1 38.33-38.33h.3a38.33 38.33 0 0 1 38.33 38.33v52.71h53.19a38.33 38.33 0 0 1 38.33 38.29 38.33 38.33 0 0 1 -38.33 38.33h-53.19v52.67a38.33 38.33 0 0 1 -38.33 38.33h-.3a38.33 38.33 0 0 1 -38.33-38.33z" fill="#fff"/></g></g></g></svg>