<?xml version="1.0" encoding="UTF-8" standalone="no"?>
<!-- Created with Inkscape (http://www.inkscape.org/) -->

<svg
   version="1.1"
   id="svg8787"
   xml:space="preserve"
   width="682.66669"
   height="682.66669"
   viewBox="0 0 682.66669 682.66669"
   xmlns="http://www.w3.org/2000/svg"
   xmlns:svg="http://www.w3.org/2000/svg"><defs
     id="defs8791"><clipPath
       clipPathUnits="userSpaceOnUse"
       id="clipPath8801"><path
         d="M 0,512 H 512 V 0 H 0 Z"
         id="path8799" /></clipPath></defs><g
     id="g8793"
     transform="matrix(1.3333333,0,0,-1.3333333,0,682.66667)"><g
       id="g8795"><g
         id="g8797"
         clip-path="url(#clipPath8801)"><g
           id="g8803"
           transform="translate(84.6494,237.6738)"><path
             d="M 0,0 C 0,-12.808 -10.384,-23.191 -23.191,-23.191 -36,-23.191 -46.383,-12.808 -46.383,0 -46.383,12.809 -36,23.191 -23.191,23.191 -10.384,23.191 0,12.809 0,0"
             style="fill:#ff656f;fill-opacity:1;fill-rule:nonzero;stroke:none"
             id="path8805" /></g><g
           id="g8807"
           transform="translate(181.9375,286.4014)"><path
             d="M 0,0 C 0,-12.809 -10.384,-23.191 -23.191,-23.191 -36,-23.191 -46.383,-12.809 -46.383,0 -46.383,12.808 -36,23.191 -23.191,23.191 -10.384,23.191 0,12.808 0,0"
             style="fill:#ffa85d;fill-opacity:1;fill-rule:nonzero;stroke:none"
             id="path8809" /></g><g
           id="g8811"
           transform="translate(279.2256,383.8545)"><path
             d="m 0,0 c 0,-12.808 -10.383,-23.191 -23.191,-23.191 -12.808,0 -23.192,10.383 -23.192,23.191 0,12.809 10.384,23.191 23.192,23.191 C -10.383,23.191 0,12.809 0,0"
             style="fill:#fee55a;fill-opacity:1;fill-rule:nonzero;stroke:none"
             id="path8813" /></g><g
           id="g8815"
           transform="translate(376.5136,335.1279)"><path
             d="m 0,0 c 0,-12.809 -10.383,-23.191 -23.191,-23.191 -12.808,0 -23.191,10.382 -23.191,23.191 0,12.809 10.383,23.191 23.191,23.191 C -10.383,23.191 0,12.809 0,0"
             style="fill:#43cb8e;fill-opacity:1;fill-rule:nonzero;stroke:none"
             id="path8817" /></g><g
           id="g8819"
           transform="translate(473.8027,481.3086)"><path
             d="M 0,0 C 0,-12.809 -10.384,-23.191 -23.191,-23.191 -36,-23.191 -46.383,-12.809 -46.383,0 -46.383,12.809 -36,23.191 -23.191,23.191 -10.384,23.191 0,12.809 0,0"
             style="fill:#23a8fe;fill-opacity:1;fill-rule:nonzero;stroke:none"
             id="path8821" /></g><g
           id="g8823"
           transform="translate(63.5996,237.6738)"><path
             d="M 0,0 C 0,8.133 4.189,15.283 10.524,19.423 6.883,21.804 2.533,23.191 -2.142,23.191 -14.95,23.191 -25.333,12.809 -25.333,0 c 0,-12.808 10.383,-23.191 23.191,-23.191 4.675,0 9.025,1.388 12.666,3.768 C 4.189,-15.282 0,-8.132 0,0"
             style="fill:#ff4756;fill-opacity:1;fill-rule:nonzero;stroke:none"
             id="path8825" /></g><g
           id="g8827"
           transform="translate(160.8877,286.4014)"><path
             d="m 0,0 c 0,8.133 4.189,15.282 10.525,19.423 -3.642,2.38 -7.991,3.768 -12.667,3.768 -12.808,0 -23.191,-10.383 -23.191,-23.191 0,-12.809 10.383,-23.191 23.191,-23.191 4.676,0 9.025,1.387 12.667,3.768 C 4.189,-15.283 0,-8.133 0,0"
             style="fill:#ff9839;fill-opacity:1;fill-rule:nonzero;stroke:none"
             id="path8829" /></g><g
           id="g8831"
           transform="translate(258.1767,383.8545)"><path
             d="M 0,0 C 0,8.133 4.189,15.283 10.524,19.423 6.882,21.804 2.533,23.191 -2.143,23.191 -14.95,23.191 -25.334,12.809 -25.334,0 c 0,-12.808 10.384,-23.19 23.191,-23.19 4.676,0 9.025,1.387 12.667,3.767 C 4.189,-15.282 0,-8.132 0,0"
             style="fill:#ffd301;fill-opacity:1;fill-rule:nonzero;stroke:none"
             id="path8833" /></g><g
           id="g8835"
           transform="translate(355.4648,335.1279)"><path
             d="m 0,0 c 0,8.133 4.189,15.283 10.524,19.423 -3.641,2.38 -7.991,3.768 -12.667,3.768 -12.807,0 -23.19,-10.382 -23.19,-23.191 0,-12.808 10.383,-23.191 23.19,-23.191 4.676,0 9.026,1.388 12.667,3.768 C 4.189,-15.283 0,-8.133 0,0"
             style="fill:#00ba66;fill-opacity:1;fill-rule:nonzero;stroke:none"
             id="path8837" /></g><g
           id="g8839"
           transform="translate(452.7529,481.3086)"><path
             d="m 0,0 c 0,8.133 4.189,15.283 10.524,19.423 -3.641,2.38 -7.991,3.768 -12.666,3.768 -12.808,0 -23.191,-10.382 -23.191,-23.191 0,-12.809 10.383,-23.191 23.191,-23.191 4.675,0 9.025,1.388 12.666,3.768 C 4.189,-15.283 0,-8.133 0,0"
             style="fill:#0193fa;fill-opacity:1;fill-rule:nonzero;stroke:none"
             id="path8841" /></g><g
           id="g8843"
           transform="translate(86.54,151.832)"><path
             d="m 0,0 h -50.164 c -3.465,0 -6.273,-2.808 -6.273,-6.271 V -144.332 H 6.271 V -6.271 C 6.271,-2.808 3.464,0 0,0"
             style="fill:#ff656f;fill-opacity:1;fill-rule:nonzero;stroke:none"
             id="path8845" /></g><g
           id="g8847"
           transform="translate(183.8281,200.5596)"><path
             d="m 0,0 h -50.164 c -3.464,0 -6.273,-2.809 -6.273,-6.272 V -193.06 H 6.272 V -6.272 C 6.272,-2.809 3.464,0 0,0"
             style="fill:#ffa85d;fill-opacity:1;fill-rule:nonzero;stroke:none"
             id="path8849" /></g><g
           id="g8851"
           transform="translate(281.1162,298.4375)"><path
             d="m 0,0 h -50.164 c -3.464,0 -6.273,-2.808 -6.273,-6.271 V -290.937 H 6.272 V -6.271 C 6.272,-2.808 3.464,0 0,0"
             style="fill:#fee55a;fill-opacity:1;fill-rule:nonzero;stroke:none"
             id="path8853" /></g><g
           id="g8855"
           transform="translate(378.4043,249.2861)"><path
             d="m 0,0 h -50.164 c -3.464,0 -6.272,-2.809 -6.272,-6.272 V -241.786 H 6.272 V -6.272 C 6.272,-2.809 3.465,0 0,0"
             style="fill:#43cb8e;fill-opacity:1;fill-rule:nonzero;stroke:none"
             id="path8857" /></g><g
           id="g8859"
           transform="translate(475.6933,396.1514)"><path
             d="m 0,0 h -50.164 c -3.464,0 -6.273,-2.809 -6.273,-6.272 V -388.651 H 6.271 V -6.272 C 6.271,-2.809 3.464,0 0,0"
             style="fill:#23a8fe;fill-opacity:1;fill-rule:nonzero;stroke:none"
             id="path8861" /></g><g
           id="g8863"
           transform="translate(74.914,151.832)"><path
             d="m 0,0 h -38.538 c -3.465,0 -6.273,-2.808 -6.273,-6.271 v -138.061 h 38.54 V -6.271 C -6.271,-2.808 -3.464,0 0,0"
             style="fill:#ff4756;fill-opacity:1;fill-rule:nonzero;stroke:none"
             id="path8865" /></g><g
           id="g8867"
           transform="translate(172.2021,200.5596)"><path
             d="m 0,0 h -38.538 c -3.464,0 -6.273,-2.809 -6.273,-6.272 V -193.06 h 38.54 V -6.272 C -6.271,-2.809 -3.464,0 0,0"
             style="fill:#ff9839;fill-opacity:1;fill-rule:nonzero;stroke:none"
             id="path8869" /></g><g
           id="g8871"
           transform="translate(269.4912,298.4375)"><path
             d="m 0,0 h -38.539 c -3.464,0 -6.273,-2.808 -6.273,-6.271 v -284.666 h 38.54 V -6.271 C -6.272,-2.808 -3.464,0 0,0"
             style="fill:#ffd301;fill-opacity:1;fill-rule:nonzero;stroke:none"
             id="path8873" /></g><g
           id="g8875"
           transform="translate(366.7793,249.2861)"><path
             d="m 0,0 h -38.539 c -3.464,0 -6.272,-2.809 -6.272,-6.272 V -241.786 H -6.272 V -6.272 C -6.272,-2.809 -3.464,0 0,0"
             style="fill:#00ba66;fill-opacity:1;fill-rule:nonzero;stroke:none"
             id="path8877" /></g><g
           id="g8879"
           transform="translate(464.0674,396.1514)"><path
             d="m 0,0 h -38.538 c -3.464,0 -6.273,-2.809 -6.273,-6.272 v -382.379 h 38.54 V -6.272 C -6.271,-2.809 -3.464,0 0,0"
             style="fill:#0193fa;fill-opacity:1;fill-rule:nonzero;stroke:none"
             id="path8881" /></g><g
           id="g8883"
           transform="translate(84.6142,237.6738)"><path
             d="m 0,0 c 0,-12.808 -10.383,-23.191 -23.191,-23.191 -12.808,0 -23.191,10.383 -23.191,23.191 0,12.809 10.383,23.191 23.191,23.191 C -10.383,23.191 0,12.809 0,0 Z"
             style="fill:none;stroke:#000000;stroke-width:15;stroke-linecap:round;stroke-linejoin:round;stroke-miterlimit:10;stroke-dasharray:none;stroke-opacity:1"
             id="path8885" /></g><g
           id="g8887"
           transform="translate(181.9033,286.4014)"><path
             d="M 0,0 C 0,-12.809 -10.384,-23.191 -23.191,-23.191 -36,-23.191 -46.383,-12.809 -46.383,0 -46.383,12.808 -36,23.191 -23.191,23.191 -10.384,23.191 0,12.808 0,0 Z"
             style="fill:none;stroke:#000000;stroke-width:15;stroke-linecap:round;stroke-linejoin:round;stroke-miterlimit:10;stroke-dasharray:none;stroke-opacity:1"
             id="path8889" /></g><g
           id="g8891"
           transform="translate(279.1914,383.8545)"><path
             d="M 0,0 C 0,-12.808 -10.383,-23.191 -23.191,-23.191 -36,-23.191 -46.383,-12.808 -46.383,0 -46.383,12.809 -36,23.191 -23.191,23.191 -10.383,23.191 0,12.809 0,0 Z"
             style="fill:none;stroke:#000000;stroke-width:15;stroke-linecap:round;stroke-linejoin:round;stroke-miterlimit:10;stroke-dasharray:none;stroke-opacity:1"
             id="path8893" /></g><g
           id="g8895"
           transform="translate(376.4795,335.1279)"><path
             d="m 0,0 c 0,-12.809 -10.383,-23.191 -23.191,-23.191 -12.808,0 -23.192,10.382 -23.192,23.191 0,12.809 10.384,23.191 23.192,23.191 C -10.383,23.191 0,12.809 0,0 Z"
             style="fill:none;stroke:#000000;stroke-width:15;stroke-linecap:round;stroke-linejoin:round;stroke-miterlimit:10;stroke-dasharray:none;stroke-opacity:1"
             id="path8897" /></g><g
           id="g8899"
           transform="translate(473.7675,481.3086)"><path
             d="m 0,0 c 0,-12.809 -10.383,-23.191 -23.19,-23.191 -12.809,0 -23.192,10.382 -23.192,23.191 0,12.809 10.383,23.191 23.192,23.191 C -10.383,23.191 0,12.809 0,0 Z"
             style="fill:none;stroke:#000000;stroke-width:15;stroke-linecap:round;stroke-linejoin:round;stroke-miterlimit:10;stroke-dasharray:none;stroke-opacity:1"
             id="path8901" /></g><g
           id="g8903"
           transform="translate(366.1367,354.4336)"><path
             d="M 0,0 71.592,107.569"
             style="fill:none;stroke:#000000;stroke-width:15;stroke-linecap:round;stroke-linejoin:round;stroke-miterlimit:10;stroke-dasharray:none;stroke-opacity:1"
             id="path8905" /></g><g
           id="g8907"
           transform="translate(276.7363,373.4687)"><path
             d="M 0,0 55.817,-27.956"
             style="fill:none;stroke:#000000;stroke-width:15;stroke-linecap:round;stroke-linejoin:round;stroke-miterlimit:10;stroke-dasharray:none;stroke-opacity:1"
             id="path8909" /></g><g
           id="g8911"
           transform="translate(175.0967,302.8135)"><path
             d="M 0,0 64.52,64.629"
             style="fill:none;stroke:#000000;stroke-width:15;stroke-linecap:round;stroke-linejoin:round;stroke-miterlimit:10;stroke-dasharray:none;stroke-opacity:1"
             id="path8913" /></g><g
           id="g8915"
           transform="translate(82.1582,248.0596)"><path
             d="M 0,0 55.818,27.956"
             style="fill:none;stroke:#000000;stroke-width:15;stroke-linecap:round;stroke-linejoin:round;stroke-miterlimit:10;stroke-dasharray:none;stroke-opacity:1"
             id="path8917" /></g><g
           id="g8919"
           transform="translate(86.5058,151.832)"><path
             d="m 0,0 h -50.165 c -3.464,0 -6.272,-2.808 -6.272,-6.271 V -144.332 H 6.271 V -6.271 C 6.271,-2.808 3.464,0 0,0 Z"
             style="fill:none;stroke:#000000;stroke-width:15;stroke-linecap:round;stroke-linejoin:round;stroke-miterlimit:10;stroke-dasharray:none;stroke-opacity:1"
             id="path8921" /></g><g
           id="g8923"
           transform="translate(183.7939,200.5596)"><path
             d="m 0,0 h -50.164 c -3.464,0 -6.273,-2.809 -6.273,-6.272 V -193.06 H 6.272 V -6.272 C 6.272,-2.809 3.464,0 0,0 Z"
             style="fill:none;stroke:#000000;stroke-width:15;stroke-linecap:round;stroke-linejoin:round;stroke-miterlimit:10;stroke-dasharray:none;stroke-opacity:1"
             id="path8925" /></g><g
           id="g8927"
           transform="translate(281.082,298.4375)"><path
             d="m 0,0 h -50.164 c -3.464,0 -6.273,-2.808 -6.273,-6.271 V -290.937 H 6.272 V -6.271 C 6.272,-2.808 3.464,0 0,0 Z"
             style="fill:none;stroke:#000000;stroke-width:15;stroke-linecap:round;stroke-linejoin:round;stroke-miterlimit:10;stroke-dasharray:none;stroke-opacity:1"
             id="path8929" /></g><g
           id="g8931"
           transform="translate(13.2871,7.5)"><path
             d="M 0,0 H 485.426"
             style="fill:none;stroke:#000000;stroke-width:15;stroke-linecap:round;stroke-linejoin:round;stroke-miterlimit:10;stroke-dasharray:none;stroke-opacity:1"
             id="path8933" /></g><g
           id="g8935"
           transform="translate(335.7881,249.2861)"><path
             d="m 0,0 h -7.582 c -3.464,0 -6.272,-2.809 -6.272,-6.272 V -241.786 H 48.854 V -6.272 C 48.854,-2.809 46.046,0 42.582,0 H 35"
             style="fill:none;stroke:#000000;stroke-width:15;stroke-linecap:round;stroke-linejoin:round;stroke-miterlimit:10;stroke-dasharray:none;stroke-opacity:1"
             id="path8937" /></g><g
           id="g8939"
           transform="translate(481.9306,214.8066)"><path
             d="m 0,0 v 175.072 c 0,3.464 -2.808,6.273 -6.271,6.273 h -50.165 c -3.464,0 -6.272,-2.809 -6.272,-6.273 V -207.307 H 0 V -35"
             style="fill:none;stroke:#000000;stroke-width:15;stroke-linecap:round;stroke-linejoin:round;stroke-miterlimit:10;stroke-dasharray:none;stroke-opacity:1"
             id="path8941" /></g></g></g></g></svg>
