<?xml version="1.0" encoding="utf-8"?>
<!-- Generator: Adobe Illustrator 16.0.0, SVG Export Plug-In . SVG Version: 6.00 Build 0)  -->
<!DOCTYPE svg PUBLIC "-//W3C//DTD SVG 1.0//EN" "http://www.w3.org/TR/2001/REC-SVG-20010904/DTD/svg10.dtd">
<svg version="1.0" id="Layer_1" xmlns="http://www.w3.org/2000/svg" xmlns:xlink="http://www.w3.org/1999/xlink" x="0px" y="0px"
	 width="100px" height="100px" viewBox="0 0 100 100" enable-background="new 0 0 100 100" xml:space="preserve">
<path d="M83.335,83.333V49.999c0-3.683-2.985-6.665-6.668-6.665H53.334v-4.037c2.941-1.289,4.998-4.216,4.998-7.628
	c0-1.128-0.226-2.209-0.633-3.191C57.699,28.483,50,10,50,10s-7.693,18.483-7.696,18.477c-0.41,0.982-0.633,2.058-0.636,3.191
	c0.003,3.413,2.06,6.339,4.998,7.628v4.037H23.333c-3.683,0-6.668,2.985-6.668,6.665v33.334H10V90h80v-6.667H83.335z M46.666,49.999
	L46.666,49.999h6.668l0,0h23.333v6.72c-4.45-0.008-8.968,0.801-13.334,2.607c-8.232,3.409-17.777,3.683-26.663,0
	c-4.192-1.74-8.729-2.607-13.337-2.604v-6.724H46.666z M23.333,83.333V63.356c3.656-0.006,7.31,0.689,10.788,2.127
	c5.121,2.121,10.5,3.186,15.882,3.186s10.758-1.064,15.882-3.18c3.48-1.441,7.132-2.135,10.782-2.129v19.973H23.333z"/>
</svg>
