<svg id="Layer_1" height="512" viewBox="0 0 520 520" width="512" xmlns="http://www.w3.org/2000/svg" data-name="Layer 1"><path d="m376.357 368.618h131.89v93.086h-131.89z" fill="#919191"/><rect fill="#919191" height="93.091" rx="15.515" width="131.878" x="376.363" y="221.212"/><path d="m457.813 279.717v88.9h-31.022v-88.9a4.205 4.205 0 0 1 4.209-4.206h22.609a4.219 4.219 0 0 1 4.204 4.206z" fill="#747575"/><path d="m252.229 120.361v46.539a77.575 77.575 0 1 1 -155.15 0v-46.539l31.042-23.261c38.783 38.782 100.847 0 100.847 0z" fill="#ffdec7"/><path d="m337.576 339.67v122.03h-325.818v-122.03a62.076 62.076 0 0 1 56.165-61.75l75.869-7.215h61.75l75.869 7.215a62.076 62.076 0 0 1 56.165 61.75z" fill="#82bcf4"/><path d="m66.057 469.462a7.755 7.755 0 0 1 -7.757-7.762v-85.329a7.758 7.758 0 1 1 15.515 0v85.329a7.756 7.756 0 0 1 -7.758 7.762z" fill="#5b9ad8"/><path d="m283.269 469.462a7.756 7.756 0 0 1 -7.758-7.758v-85.333a7.758 7.758 0 1 1 15.515 0v85.329a7.755 7.755 0 0 1 -7.757 7.762z" fill="#5b9ad8"/><path d="m252.242 120.364-23.272-23.273s-62.061 38.788-100.848 0l-31.031 23.273c-47.98-19.087-35.323-51.932-4.266-67.413a54.368 54.368 0 0 1 11.946-19.084c12.723-12.955 34.289-22.109 69.9-22.109 124.35 0 77.571 108.606 77.571 108.606z" fill="#919191"/><path d="m275.511 143.643a23.268 23.268 0 0 1 -23.282 23.257v-38.779h7.76a15.525 15.525 0 0 1 15.522 15.522z" fill="#edb996"/><path d="m97.079 128.121v38.779a23.256 23.256 0 0 1 -23.261-23.261 15.509 15.509 0 0 1 15.521-15.522z" fill="#edb996"/><path d="m134.978 365.712a7.756 7.756 0 0 1 -7.758-7.758v-15.515a7.758 7.758 0 0 1 15.515 0v15.515a7.755 7.755 0 0 1 -7.757 7.758z" fill="#dad7e5"/><path d="m103.956 357.955h62.043v46.543h-62.043z" fill="#edebf2"/><path d="m205.686 238.012v29.759c0 1.01-.063 1.935-.147 2.945a31.014 31.014 0 0 1 -61.749 0c-.084-1.01-.168-1.935-.168-2.945v-29.759a77.577 77.577 0 0 0 62.064 0z" fill="#edb996"/><path d="m11.754 461.704h496.493v46.543h-496.493z" fill="#dad7e5"/><path d="m376.357 368.618v93.086h-62.443v-69.825l23.661-23.261z" fill="#7c7d7d"/><path d="m103.942 412.258h62.058a7.758 7.758 0 0 0 7.757-7.758v-46.545a7.757 7.757 0 0 0 -7.757-7.755h-23.262v-7.76a7.758 7.758 0 1 0 -15.515 0v7.76h-23.281a7.757 7.757 0 0 0 -7.757 7.758v46.542a7.758 7.758 0 0 0 7.757 7.758zm7.758-46.546h46.545v31.031h-46.545z"/><path d="m508.242 322.06a7.757 7.757 0 0 0 7.758-7.76v-93.088a7.757 7.757 0 0 0 -7.758-7.757h-131.878a7.758 7.758 0 0 0 -7.758 7.757v93.088a7.758 7.758 0 0 0 7.758 7.757h42.667v38.788h-73.7v-21.17a69.542 69.542 0 0 0 -63.189-69.47l-68.684-6.53v-20.823a85.248 85.248 0 0 0 46.2-69.176 30.972 30.972 0 0 0 23.614-30.039 23.278 23.278 0 0 0 -22.7-23.214c4.28-11.423 17.309-52.423-2.898-83.123-14.562-22.1-42.481-33.3-83.006-33.3-56.739 0-79.213 22.963-87.968 43.443-35.874 19.888-41.2 54.436-5 74.307a23.2 23.2 0 0 0 -15.641 21.887 30.973 30.973 0 0 0 23.614 30.039 85.248 85.248 0 0 0 46.2 69.176v20.826l-68.71 6.53a69.545 69.545 0 0 0 -63.163 69.47v168.564a7.758 7.758 0 0 0 7.759 7.758h496.483a7.757 7.757 0 0 0 7.758-7.758v-139.636a7.758 7.758 0 0 0 -7.758-7.758h-42.666v-38.788zm-124.12-15.515v-77.575h116.363v77.575h-34.909v-26.825a11.985 11.985 0 0 0 -11.97-11.962h-22.613a11.977 11.977 0 0 0 -11.962 11.962v26.825zm-15.516 147.394h-46.933v-58.807l9.651-9.493 9.433-9.276h27.849zm-170.666-204.908v18.727c0 12.006-9.7 21.89-21 22.992a23.5 23.5 0 0 1 -25.54-22.992v-18.727a94.511 94.511 0 0 0 23.273 3.211 97.316 97.316 0 0 0 23.267-3.211zm69.818-105.394a15.446 15.446 0 0 1 -7.758 13.444v-21.2a7.757 7.757 0 0 1 7.758 7.756zm-171.472-83.727c.023-.012.038-.035.061-.047 31.263-15.327 47.431 16.075 48.105 17.423a7.758 7.758 0 0 0 13.879-6.935c-7.423-14.851-25.265-31.621-48.862-29.972 12.677-13.838 34.48-20.863 65.2-20.863 34.909 0 58.492 8.828 69.989 26.244 12.753 19.324 8.331 45.529 4.22 60.268l-14.423-14.421a7.758 7.758 0 0 0 -9.588-1.1c-.574.326-57.359 35-91.26 1.1a7.758 7.758 0 0 0 -10.139-.722l-27.5 20.623c-27.616-9.101-33.31-34.594.318-51.598zm-14.709 83.727a7.758 7.758 0 0 1 7.758-7.758v21.171a15.515 15.515 0 0 1 -7.758-13.413zm23.273 23.272v-42.664l22.815-17.1c17.854 14.724 38.824 16.77 57.347 14.064s34.6-10.165 42.663-14.451l5.785 5.787 11.026 11.031v43.333a69.8 69.8 0 0 1 -41.743 63.9c-.056.023-.1.053-.158.077-.092.04-.179.091-.271.13a70.168 70.168 0 0 1 -55.293 0c-.092-.04-.178-.09-.27-.13-.054-.024-.1-.054-.159-.077a69.8 69.8 0 0 1 -41.742-63.9zm-36.206 118.739 68.944-6.55a38.764 38.764 0 0 0 74.151 0l68.927 6.552a54.1 54.1 0 0 1 49.151 54.03v25.68l-21.341 20.992a7.686 7.686 0 0 0 -2.224 5.063c-.01.16-.094.3-.094.463v62.061h-15.127v-77.576a7.758 7.758 0 0 0 -15.515 0v77.576h-201.697v-77.576a7.758 7.758 0 0 0 -15.515 0v77.576h-38.789v-114.261a54.1 54.1 0 0 1 49.129-54.03zm431.841 214.836h-480.968v-31.026h480.968zm0-46.545h-116.363v-77.576h116.363zm-65.939-93.091v-77.575h15.515v77.575z"/></svg>