<svg id="Layer_1" enable-background="new 0 0 66 66" height="512" viewBox="0 0 66 66" width="512" xmlns="http://www.w3.org/2000/svg"><g><g><g><g stroke="#101f2d" stroke-linecap="round" stroke-linejoin="round" stroke-miterlimit="10" stroke-width="2"><path d="m58.1 64h-41c-2.2 0-4-1.8-4-4v-54c0-2.2 1.8-4 4-4h31.2c2.2 0 4 1.8 4 4v50.8" fill="none"/><path d="m58.3 64h-.4c-3.1 0-5.6-2.5-5.6-5.6v-38.9h11.5v38.9c.1 3.1-2.4 5.6-5.5 5.6z" fill="#ef6561"/></g></g><g stroke="#101f2d" stroke-linecap="round" stroke-linejoin="round" stroke-miterlimit="10" stroke-width="2"><path d="m17.3 50.5-11.4 10.3c-.9.8-2.2.8-3.1-.1-.8-.8-.9-2.2-.1-3.1l10.3-11.5" fill="#fff"/><circle cx="21.9" cy="41.5" fill="#64c4f6" r="9.6"/><g fill="#64c4f6"><g><path d="m32.6 21-6.4-3.3v-7.2l6.4 3.2z"/><path d="m39.1 17.7-6.5 3.3v-7.3l6.5-3.2z"/><path d="m32.6 7.2-6.4 3.3 6.4 3.2 6.5-3.2z"/></g><path d="m19.8 25.1h25.8"/><path d="m31.6 30.7h14"/><path d="m35.3 36.3h10.3"/><path d="m36.9 41.9h8.7"/><path d="m34.5 47.6h11.1"/><path d="m30.2 53.2h15.4"/><path d="m19.8 58.8h25.8"/></g><g><path d="m25 43.6-3.1-6.5-3 6.5" fill="#fff"/><path d="m18.9 50.1v-6.5h6.1v6.5" fill="#64c4f6"/></g></g></g><g><g><circle cx="11.2" cy="15.6" r="9" style="fill:#ef6561;stroke:#101f2d;stroke-width:2;stroke-linecap:round;stroke-linejoin:round;stroke-miterlimit:10"/></g><g stroke="#101f2d" stroke-linecap="round" stroke-linejoin="round" stroke-miterlimit="10" stroke-width="2"><path d="m11.2 20.8v-6.8h-2.1" fill="none"/><g fill="#fff"><path d="m11.2 9.9v1"/><path d="m9.1 20.8h4.2"/></g></g></g></g></svg>