<svg height="512" viewBox="0 0 64 64" width="512" xmlns="http://www.w3.org/2000/svg"><g id="Layer_4" data-name="Layer 4"><path d="m24 31h36a2 2 0 0 1 2 2v25a4 4 0 0 1 -4 4h-52a4 4 0 0 1 -4-4v-36a2 2 0 0 1 2-2h8.172a2 2 0 0 1 1.414.586z" fill="#f0ae42"/><path d="m56 12v42h-36v-52h26z" fill="#e2e7f6"/><path d="m52 48.47v-40.47l-6-6h-26v48.47h30a2 2 0 0 0 2-2z" fill="#f2f2f2"/><path d="m46 2v10h10" fill="#c8cded"/><circle cx="38" cy="32" fill="#559b2d" r="14"/><path d="m50 31a13.977 13.977 0 0 0 -6.8-11.992 13.988 13.988 0 0 0 -12.4 24.984 13.983 13.983 0 0 0 19.2-12.992z" fill="#6bc13b"/><path d="m31 29 7-7 7 7h-4v13h-6v-13z" fill="#f2f2f2"/><path d="m5 57h14v2h-14z" fill="#d5883e"/><path d="m21 57h2v2h-2z" fill="#d5883e"/><g fill="#c8cded"><path d="m27 7h10v2h-10z"/><path d="m39 7h4v2h-4z"/><path d="m23 11h20v2h-20z"/></g><path d="m60 30h-3v-18a1 1 0 0 0 -.293-.707l-10-10a1 1 0 0 0 -.707-.293h-26a1 1 0 0 0 -1 1v22.586l-4.707-4.707a2.978 2.978 0 0 0 -2.122-.879h-8.171a3 3 0 0 0 -3 3v36a5.006 5.006 0 0 0 5 5h52a5.006 5.006 0 0 0 5-5v-25a3 3 0 0 0 -3-3zm-13-25.586 6.586 6.586h-6.586zm-26-1.414h24v9a1 1 0 0 0 1 1h9v40h-34zm40 55a3 3 0 0 1 -3 3h-52a3 3 0 0 1 -3-3v-36a1 1 0 0 1 1-1h8.171a1 1 0 0 1 .708.293l6.121 6.121v26.586a1 1 0 0 0 1 1h36a1 1 0 0 0 1-1v-22h3a1 1 0 0 1 1 1z"/><path d="m38 17a15 15 0 1 0 15 15 15.017 15.017 0 0 0 -15-15zm0 28a13 13 0 1 1 13-13 13.015 13.015 0 0 1 -13 13z"/><path d="m38.707 21.293a1 1 0 0 0 -1.414 0l-7 7a1 1 0 0 0 .707 1.707h3v12a1 1 0 0 0 1 1h6a1 1 0 0 0 1-1v-12h3a1 1 0 0 0 .707-1.707zm2.293 6.707a1 1 0 0 0 -1 1v12h-4v-12a1 1 0 0 0 -1-1h-1.586l4.586-4.586 4.586 4.586z"/><path d="m5 57h14v2h-14z"/><path d="m21 57h2v2h-2z"/><path d="m27 7h10v2h-10z"/><path d="m39 7h4v2h-4z"/><path d="m23 11h20v2h-20z"/></g></svg>