<svg clip-rule="evenodd" fill-rule="evenodd" stroke-linejoin="round" stroke-miterlimit="2" viewBox="0 0 510 510" xmlns="http://www.w3.org/2000/svg"><g><g><g><path d="m477.963 438.621v-15.827l-445.926-.261v16.088s-4.031 14.082-6.98 22.737c-.52 1.527-.272 3.211.667 4.523.939 1.311 2.453 2.09 4.066 2.09h450.42c1.613 0 3.127-.779 4.066-2.09.939-1.312 1.187-2.996.667-4.523-2.949-8.655-6.98-22.737-6.98-22.737z" fill="#d1d1d6"/><g fill="#b1b1b5"><path d="m25.063 461.34h445.555c1.613 0 3.127-.778 4.066-2.09.938-1.311 1.187-2.995.667-4.522-2.95-8.656-7.388-16.107-7.388-16.107l.407-15.833 9.593.006v15.827s4.031 14.082 6.98 22.737c.52 1.527.272 3.211-.667 4.523-.939 1.311-2.453 2.09-4.066 2.09h-450.42c-1.613 0-3.127-.779-4.066-2.09-.939-1.312-1.187-2.996-.667-4.523z"/><path d="m477.963 268.185c0-.791-.315-1.549-.874-2.109-.559-.559-1.318-.874-2.109-.874-21.59 0-153.075 0-153.075 0v40.444h156.058z"/><path d="m32.037 268.185c0-.791.315-1.549.874-2.109.559-.559 1.318-.874 2.109-.874h153.075v40.444h-156.058z"/></g><path d="m15 298.629c0-.791.314-1.55.874-2.109.559-.56 1.318-.874 2.109-.874h170.112v35.849h-170.112c-.791 0-1.55-.314-2.109-.873-.56-.56-.874-1.318-.874-2.109 0-6.751 0-23.134 0-29.884z" fill="#d1d1d6"/><path d="m188.095 321.495v10h-170.112c-.791 0-1.55-.314-2.109-.873-.56-.56-.874-1.318-.874-2.109v-29.884c0-.791.314-1.55.874-2.109.559-.56 1.318-.874 2.109-.874h7.017v22.867c0 .791.314 1.549.874 2.109.559.559 1.318.873 2.109.873z" fill="#b1b1b5"/><path d="m495 298.629c0-.791-.314-1.55-.874-2.109-.559-.56-1.318-.874-2.109-.874-22.915 0-170.112 0-170.112 0v35.849h170.112c.791 0 1.55-.314 2.109-.873.56-.56.874-1.318.874-2.109 0-6.751 0-23.134 0-29.884z" fill="#d1d1d6"/><path d="m321.905 321.495h160.112c.791 0 1.55-.314 2.109-.873.56-.56.874-1.318.874-2.109v-22.867h7.017c.791 0 1.55.314 2.109.874.56.559.874 1.318.874 2.109v29.884c0 .791-.314 1.549-.874 2.109-.559.559-1.318.873-2.109.873h-170.112z" fill="#b1b1b5"/><path d="m32.037 331.495h147.693v107.126h-147.693z" fill="#8ac9fe"/><path d="m32.037 331.495h10v107.126h-10z" fill="#60b7ff"/><path d="m330.27 331.495h147.693v107.126h-147.693z" fill="#8ac9fe"/><path d="m467.963 331.495h10v107.126h-10z" fill="#60b7ff"/><path d="m327.634 238.483c0-1.647-1.336-2.983-2.983-2.983-19.215 0-122.723 0-141.938 0-1.648 0-2.983 1.336-2.983 2.983v200.138h147.904z" fill="#eceff1"/><path d="m320.27 438.621v-200.138c0-1.647-1.335-2.983-2.983-2.983h10c1.648 0 2.983 1.336 2.983 2.983v200.138z" fill="#d1d1d6"/><path d="m294.489 345.863c0-4.861-3.941-8.802-8.802-8.802h-61.374c-4.861 0-8.802 3.941-8.802 8.802v92.758h78.978z" fill="#837683"/><path d="m234.313 337.061c-4.861 0-8.802 3.941-8.802 8.802v92.758h-10v-92.758c0-4.861 3.941-8.802 8.802-8.802z" fill="#685e68"/><path d="m84.852 354.961c1.326 0 2.598.527 3.536 1.465.937.937 1.464 2.209 1.464 3.535v19.349c0 1.326-.527 2.598-1.464 3.536-.938.937-2.21 1.464-3.536 1.464h-19.349c-1.326 0-2.598-.527-3.536-1.464-.937-.938-1.464-2.21-1.464-3.536v-19.349c0-1.326.527-2.598 1.464-3.535.938-.938 2.21-1.465 3.536-1.465zm61.412 0c1.326 0 2.598.527 3.536 1.465.937.937 1.464 2.209 1.464 3.535v19.349c0 1.326-.527 2.598-1.464 3.536-.938.937-2.21 1.464-3.536 1.464h-19.349c-1.326 0-2.598-.527-3.535-1.464-.938-.938-1.465-2.21-1.465-3.536v-19.349c0-1.326.527-2.598 1.465-3.535.937-.938 2.209-1.465 3.535-1.465z" fill="#d8ecfe"/><path d="m71.049 384.31h-5.546c-1.326 0-2.598-.527-3.536-1.464-.937-.938-1.464-2.21-1.464-3.536v-19.349c0-1.326.527-2.598 1.464-3.535.938-.938 2.21-1.465 3.536-1.465h5.546c-1.326 0-2.598.527-3.536 1.465-.938.937-1.464 2.209-1.464 3.535v19.349c0 1.326.526 2.598 1.464 3.536.938.937 2.21 1.464 3.536 1.464zm61.412 0h-5.546c-1.326 0-2.598-.527-3.535-1.464-.938-.938-1.465-2.21-1.465-3.536v-19.349c0-1.326.527-2.598 1.465-3.535.937-.938 2.209-1.465 3.535-1.465h5.546c-1.326 0-2.598.527-3.536 1.465-.937.937-1.464 2.209-1.464 3.535v19.349c0 1.326.527 2.598 1.464 3.536.938.937 2.21 1.464 3.536 1.464z" fill="#c4e2ff"/><path d="m383.085 354.961c1.326 0 2.598.527 3.535 1.465.938.937 1.465 2.209 1.465 3.535v19.349c0 1.326-.527 2.598-1.465 3.536-.937.937-2.209 1.464-3.535 1.464h-19.349c-1.326 0-2.598-.527-3.536-1.464-.937-.938-1.464-2.21-1.464-3.536v-19.349c0-1.326.527-2.598 1.464-3.535.938-.938 2.21-1.465 3.536-1.465zm61.412 0c1.326 0 2.598.527 3.536 1.465.937.937 1.464 2.209 1.464 3.535v19.349c0 1.326-.527 2.598-1.464 3.536-.938.937-2.21 1.464-3.536 1.464h-19.349c-1.326 0-2.598-.527-3.536-1.464-.937-.938-1.464-2.21-1.464-3.536v-19.349c0-1.326.527-2.598 1.464-3.535.938-.938 2.21-1.465 3.536-1.465z" fill="#d8ecfe"/><path d="m378.3 354.961h4.785c1.326 0 2.598.527 3.535 1.465.938.937 1.465 2.209 1.465 3.535v19.349c0 1.326-.527 2.598-1.465 3.536-.937.937-2.209 1.464-3.535 1.464h-4.785c1.326 0 2.597-.527 3.535-1.464.938-.938 1.465-2.21 1.465-3.536v-19.349c0-1.326-.527-2.598-1.465-3.535-.938-.938-2.209-1.465-3.535-1.465zm61.412 0h4.785c1.326 0 2.598.527 3.536 1.465.937.937 1.464 2.209 1.464 3.535v19.349c0 1.326-.527 2.598-1.464 3.536-.938.937-2.21 1.464-3.536 1.464h-4.785c1.326 0 2.598-.527 3.535-1.464.938-.938 1.465-2.21 1.465-3.536v-19.349c0-1.326-.527-2.598-1.465-3.535-.937-.938-2.209-1.465-3.535-1.465z" fill="#c4e2ff"/></g><path d="m258.799 262.857c-.95 1.11-2.338 1.749-3.799 1.748-1.461 0-2.848-.639-3.798-1.749-31.4-36.454-82.75-89.519-82.75-134.285 0-47.789 38.759-86.548 86.548-86.548 47.803 0 86.548 38.759 86.548 86.548 0 44.767-51.337 97.831-82.749 134.286z" fill="#ffe177"/><path d="m250.001 42.165c1.654-.094 3.321-.142 4.999-.142 47.803 0 86.548 38.759 86.548 86.548 0 44.767-51.337 97.831-82.749 134.286-.948 1.107-2.332 1.746-3.79 1.748-1.458.003-2.844-.632-3.796-1.736-.401-.465-.805-.933-1.212-1.404 31.501-36.404 81.547-88.694 81.547-132.894 0-46.111-36.072-83.815-81.547-86.406z" fill="#ffd064"/><g><g><path d="m220.672 105.893h82.765l-8.891 37.144c-1.206 5.039-5.55 8.484-10.698 8.484h-51.536z" fill="#8ac9fe"/></g></g></g><path d="m24.037 339.495h-9.037c-4.418 0-8-3.581-8-8v-35.849c0-4.418 3.582-8 8-8h9.037v-22.444c0-4.418 3.582-8 8-8h139.693v-21.702c0-4.418 3.582-8 8-8h30.433c-9.58-11.624-18.941-23.816-26.857-36.143-13.581-21.151-22.847-42.793-22.847-62.786 0-52.203 42.339-94.542 94.541-94.542 52.218 0 94.541 42.339 94.541 94.542 0 19.993-9.263 41.635-22.842 62.785-7.915 12.327-17.276 24.52-26.856 36.144h30.427c4.418 0 8 3.582 8 8v21.702h139.693c4.418 0 8 3.582 8 8v22.444h9.037c4.418 0 8 3.582 8 8v35.849c0 4.419-3.582 8-8 8h-9.037v83.243.1s-.014 16.325-.04 16.59l8.846 25.962c.832 2.443.435 5.138-1.067 7.237-1.502 2.098-3.925 3.344-6.506 3.344h-464.392c-2.581 0-5.004-1.246-6.506-3.344-1.502-2.099-1.899-4.794-1.067-7.237l8.846-25.962c-.026-.265-.04-16.852-.04-16.852 0-.033 0-.065 0-.098zm147.693-35.849h-148.73v19.849h148.73zm0-30.444c-29.667 0-131.693 0-131.693 0v14.444h131.693zm51.987-29.702h-35.987v187.121h19.781v-84.758c0-9.28 7.522-16.802 16.802-16.802h61.374c9.28 0 16.802 7.522 16.802 16.802v84.758h19.781v-187.121h-35.981c-9.076 10.485-17.827 20.267-25.186 28.966-1.519 1.796-3.752 2.831-6.104 2.831s-4.584-1.036-6.103-2.832c-7.355-8.7-16.104-18.48-25.179-28.965zm114.553 29.702v14.444h131.693v-14.444zm0 30.444v19.849h148.73v-19.849zm131.693 118.954v-83.105h-131.693v91.126h131.304zm-431.433 24.021-4.549 13.35h442.038l-4.549-13.35zm1.507-107.126v82.847l.395 8.279h131.298v-91.126zm246.452 91.126v-84.758c0-.443-.359-.802-.802-.802h-61.374c-.443 0-.802.359-.802.802v84.758zm-31.488-175.588c17.898-20.601 41.43-46.125 58.245-72.314 11.754-18.307 20.308-36.843 20.308-54.148 0-43.375-35.166-78.555-78.554-78.555-43.375 0-78.554 35.18-78.554 78.555 0 17.305 8.557 35.84 20.312 54.148 16.817 26.189 40.351 51.713 58.243 72.314zm-30.304-101.06c-.051-.156-14.294-55.973-14.294-55.973h-3.84c-4.416 0-8-3.584-8-8 0-4.415 3.584-8 8-8h10.055c3.657 0 6.848 2.48 7.752 6.023l2.518 9.87h76.549c2.45 0 4.764 1.122 6.281 3.046 1.517 1.923 2.07 4.435 1.499 6.817l-8.891 37.144c-2.081 8.696-9.593 14.621-18.478 14.621h-41.764c-2.033 0-3.681 1.649-3.681 3.682v.002c0 .977.387 1.913 1.078 2.604.69.69 1.627 1.078 2.604 1.078h49.246c4.416 0 8 3.585 8 8 0 4.416-3.584 8-8 8h-49.246c-5.22 0-10.227-2.073-13.918-5.764-3.691-3.692-5.764-8.698-5.764-13.918v-.002c0-3.335.829-6.477 2.294-9.23zm13.83-10.452h45.321c1.412 0 2.587-.964 2.918-2.346l6.53-27.282h-62.327s7.558 29.628 7.558 29.628zm218.97 211.44v29.349c0 4.418-3.582 8-8 8h-29.349c-4.418 0-8-3.582-8-8v-29.349c0-4.418 3.582-8 8-8h29.349c4.418 0 8 3.582 8 8zm-16 8h-13.349v13.349h13.349zm-45.412-8v29.349c0 4.418-3.582 8-8 8h-29.349c-4.419 0-8-3.582-8-8v-29.349c0-4.418 3.581-8 8-8h29.349c4.418 0 8 3.582 8 8zm-16 8h-13.349v13.349h13.349zm-115.783 21.349c0-4.415 3.584-8 8-8 4.415 0 8 3.585 8 8v13.542c0 4.415-3.585 8-8 8-4.416 0-8-3.585-8-8zm-105.038-29.349v29.349c0 4.418-3.581 8-8 8h-29.349c-4.418 0-8-3.582-8-8v-29.349c0-4.418 3.582-8 8-8h29.349c4.419 0 8 3.582 8 8zm-16 8h-13.349v13.349h13.349zm-45.412-8v29.349c0 4.418-3.582 8-8 8h-29.349c-4.418 0-8-3.582-8-8v-29.349c0-4.418 3.582-8 8-8h29.349c4.418 0 8 3.582 8 8zm-16 8h-13.349v13.349h13.349z"/></g></svg>