<?xml version="1.0" encoding="UTF-8" standalone="no"?> <svg width="64" height="64" viewBox="0 0 64 64" fill="none" xmlns="http://www.w3.org/2000/svg">
<path d="M60.68 45.48C60.4589 44.9218 60.127 44.4142 59.7041 43.9879C59.2813 43.5617 58.7764 43.2256 58.22 43C57.6822 42.7723 57.1041 42.6549 56.52 42.6549C55.9359 42.6549 55.3578 42.7723 54.82 43L42.09 47.51C42.1336 47.2556 42.157 46.9981 42.16 46.74C42.16 45.6049 41.7091 44.5162 40.9064 43.7136C40.1038 42.9109 39.0151 42.46 37.88 42.46H34.58C31.6453 42.4574 28.7553 41.7401 26.16 40.37C23.2789 38.8464 20.0691 38.05 16.81 38.05H11.81V34.5C11.81 34.2348 11.7046 33.9804 11.5171 33.7929C11.3296 33.6054 11.0752 33.5 10.81 33.5H4C3.73478 33.5 3.48043 33.6054 3.29289 33.7929C3.10536 33.9804 3 34.2348 3 34.5V59C3 59.2652 3.10536 59.5196 3.29289 59.7071C3.48043 59.8946 3.73478 60 4 60H10.81C11.0752 60 11.3296 59.8946 11.5171 59.7071C11.7046 59.5196 11.81 59.2652 11.81 59V56.75C13.6051 56.8324 15.3795 57.1691 17.08 57.75L22.22 59.57C24.8546 60.4967 27.6272 60.9701 30.42 60.97H31.42C34.4138 60.8345 37.3582 60.1569 40.11 58.97L58.54 51.1C59.5302 50.5955 60.2976 49.741 60.6931 48.7024C61.0886 47.6638 61.0839 46.5153 60.68 45.48V45.48ZM9.81 58H5V35.5H9.81V58ZM57.73 49.32L39.36 57.17C36.8274 58.2604 34.1153 58.874 31.36 58.98C28.4717 59.1003 25.587 58.6693 22.86 57.71L17.74 55.9C15.8299 55.2299 13.8321 54.8425 11.81 54.75V40.05H16.81C19.7423 40.0465 22.6305 40.7643 25.22 42.14C28.1057 43.661 31.318 44.4572 34.58 44.46H37.88C38.1803 44.46 38.4776 44.5193 38.7548 44.6345C39.0321 44.7497 39.2839 44.9186 39.4958 45.1313C39.7076 45.3441 39.8753 45.5966 39.9893 45.8744C40.1033 46.1522 40.1613 46.4497 40.16 46.75C40.1617 47.0755 40.0919 47.3974 39.9554 47.6929C39.8188 47.9885 39.619 48.2503 39.37 48.46L37.69 49.05H26.78C26.5148 49.05 26.2604 49.1554 26.0729 49.3429C25.8854 49.5304 25.78 49.7848 25.78 50.05C25.78 50.3152 25.8854 50.5696 26.0729 50.7571C26.2604 50.9446 26.5148 51.05 26.78 51.05H37.88C38.02 51.05 55.56 44.89 55.56 44.89C55.8613 44.7587 56.1864 44.6909 56.515 44.6909C56.8436 44.6909 57.1687 44.7587 57.47 44.89C57.7752 45.0138 58.0521 45.1982 58.2841 45.4319C58.5161 45.6657 58.6984 45.9439 58.82 46.25C59.0445 46.8081 59.0577 47.4289 58.857 47.996C58.6563 48.563 58.2556 49.0374 57.73 49.33V49.32Z" fill="black"/>
<path d="M26 31.42C27.9196 33.5609 30.2698 35.2722 32.8967 36.4419C35.5236 37.6116 38.3679 38.2133 41.2434 38.2077C44.1189 38.202 46.9608 37.5891 49.583 36.4091C52.2053 35.229 54.5487 33.5084 56.46 31.36C56.5681 31.2378 56.6447 31.091 56.683 30.9323C56.7214 30.7737 56.7203 30.6081 56.68 30.45C56.0196 27.7502 54.6613 25.2714 52.7413 23.2619C50.8213 21.2523 48.4069 19.7826 45.74 19C47.3307 18.0055 48.5545 16.5204 49.2266 14.7689C49.8986 13.0174 49.9823 11.0947 49.465 9.29144C48.9477 7.48817 47.8576 5.90225 46.3593 4.77332C44.861 3.6444 43.036 3.0338 41.16 3.0338C39.284 3.0338 37.4589 3.6444 35.9606 4.77332C34.4623 5.90225 33.3722 7.48817 32.8549 9.29144C32.3376 11.0947 32.4213 13.0174 33.0933 14.7689C33.7654 16.5204 34.9892 18.0055 36.58 19C33.9377 19.7856 31.5453 21.2451 29.6378 23.2351C27.7303 25.225 26.3732 27.6769 25.7 30.35C25.6385 30.538 25.6342 30.74 25.6876 30.9305C25.741 31.121 25.8497 31.2913 26 31.42V31.42ZM34.56 11.64C34.56 10.328 34.9486 9.04543 35.6769 7.95415C36.4052 6.86287 37.4405 6.0118 38.6521 5.50836C39.8636 5.00493 41.1971 4.87169 42.4844 5.12548C43.7716 5.37926 44.9547 6.00869 45.8845 6.93431C46.8144 7.85993 47.4491 9.04026 47.7087 10.3263C47.9683 11.6124 47.841 12.9465 47.3431 14.1603C46.8451 15.3741 45.9987 16.4132 44.9107 17.1464C43.8227 17.8796 42.5419 18.2741 41.23 18.28H41.17C40.2971 18.2813 39.4326 18.1105 38.6259 17.7774C37.8191 17.4443 37.0859 16.9554 36.4683 16.3387C35.8507 15.722 35.3607 14.9896 35.0263 14.1833C34.692 13.3771 34.52 12.5128 34.52 11.64H34.56ZM41.17 20.28H41.23C44.2538 20.2891 47.1923 21.284 49.5996 23.1139C52.007 24.9438 53.752 27.5088 54.57 30.42C52.8494 32.2498 50.7725 33.708 48.4671 34.7048C46.1617 35.7016 43.6766 36.2158 41.165 36.2158C38.6533 36.2158 36.1682 35.7016 33.8628 34.7048C31.5574 33.708 29.4805 32.2498 27.76 30.42C28.5778 27.5031 30.3269 24.9335 32.7407 23.1029C35.1544 21.2722 38.1005 20.2809 41.13 20.28H41.17Z" fill="black"/>
</svg>
