<svg id="Layer_1" enable-background="new 0 0 512 512" viewBox="0 0 512 512" xmlns="http://www.w3.org/2000/svg"><path d="m223.83 459.08c4.31.91 7.09 5.13 6.18 9.44-.88 4.34-5.1 7.09-9.44 6.21-30.9-6.49-58.14-22.96-78.09-45.89-16.33-18.79-27.84-41.92-32.51-67.46-2.3 1.22-5.1 1.33-7.57 0-3.88-2.1-5.33-6.92-3.26-10.8l11.2-20.75c2.07-3.88 6.92-5.33 10.8-3.23 1.45.77 2.52 1.9 3.26 3.23l12.1 19.64c2.32 3.74 1.16 8.67-2.58 10.97-2.47 1.5-5.41 1.53-7.79.34 4.39 21.71 14.4 41.41 28.43 57.54 17.73 20.41 41.89 35.04 69.27 40.76zm152.02-114.88c.28-4.42 4.11-7.74 8.5-7.46 4.39.31 7.74 4.11 7.43 8.5-2.15 31.89-14.83 60.92-34.55 83.59-17.35 19.96-40.2 35.01-66.22 42.86 1.7 2.1 2.3 4.99 1.3 7.71-1.47 4.14-6.04 6.29-10.18 4.82l-22.17-7.99c-4.14-1.47-6.29-6.04-4.82-10.18.51-1.39 1.33-2.52 2.35-3.4l18-15.22c3.34-2.83 8.39-2.41 11.25.94 1.79 2.15 2.3 4.96 1.53 7.46 22.28-7.11 41.87-20.24 56.89-37.5 17.54-20.13 28.76-45.87 30.69-74.13z" fill="#218380"/><path clip-rule="evenodd" d="m422.82 205.78h14.2c8.14 0 14.8-14.46 14.8-22.62v-79.14c0-39.77-32.23-72.03-72.03-72.03-39.77 0-72 32.26-72 72.03v79.14c0 8.16 6.63 22.62 14.8 22.62h19.25z" fill="#d81159" fill-rule="evenodd"/><path clip-rule="evenodd" d="m473.22 314.46c-.08-22.05-.37-69.79-.37-81.78 0-36.43-88.1-25.34-68.26-67.72-8.93 5.87-19.33 8.25-29.34 8.11-6.49-.09-12.84-1.81-18.6-4.88 3.66 8.93 5.58 20.66-21.54 33.17-21.77 10.03-46.74 11.99-46.74 37.3 0 11.76.03 55.64.14 75.8z" fill="#f8be9b" fill-rule="evenodd"/><path clip-rule="evenodd" d="m402.04 172.56c.43-2.32 1.25-4.85 2.55-7.6-8.93 5.87-19.33 8.25-29.34 8.11-6.49-.09-12.84-1.81-18.6-4.88.91 2.18 1.67 4.54 1.98 7.03 5.22 2.44 10.86 3.83 16.61 3.88 9.09.15 18.5-1.78 26.8-6.54z" fill="#a37d66" fill-rule="evenodd"/><path clip-rule="evenodd" d="m473.22 314.46c-.08-22.05-.37-69.79-.37-81.78 0-21.17-29.71-26.28-50.74-35.18-9.35 15.9-23.64 30.59-42.92 44.02-18.23-12.73-32-26.56-41.36-41.47-.88.45-1.79.88-2.72 1.3-21.77 10.03-46.74 11.99-46.74 37.3 0 11.76.03 55.64.14 75.8h184.71z" fill="#ffb703" fill-rule="evenodd"/><path d="m427.98 263.41c0-4.42 3.57-7.99 7.99-7.99s7.99 3.57 7.99 7.99v51.05h-15.99v-51.05z" fill="#a77903"/><path clip-rule="evenodd" d="m331.49 125.42c0 27.89 21.03 48.22 43.77 48.56 22.73.31 47.62-12.36 52.16-49.83 4.51-37.5-13.1-56.78-36.68-61.97.2 1.53.28 3.12.28 4.68 0 24.89-22.82 45.07-50.94 45.07-7.6 0-8.59 1.64-8.59 13.49z" fill="#a37d66" fill-rule="evenodd"/><path clip-rule="evenodd" d="m331.49 125.42c0 27.89 21.03 48.22 43.77 48.56 22.73.31 47.62-12.36 52.16-49.83 4.31-35.72-11.48-54.91-33.34-61.11.08 1.19.14 2.38.14 3.6 0 27.13-24.83 49.1-55.47 49.1-3.26 0-5.41.28-6.8 1.42-.38 1.94-.46 4.63-.46 8.26z" fill="#f8be9b" fill-rule="evenodd"/><path clip-rule="evenodd" d="m75.24 206.23h-14.2c-8.16 0-14.8-14.91-14.8-23.07v-79.14c0-39.77 32.23-72.03 72-72.03s72.03 32.26 72.03 72.03v79.14c0 8.16-6.66 23.07-14.8 23.07h-19.25z" fill="#ffb703" fill-rule="evenodd"/><path clip-rule="evenodd" d="m24.84 314.46c.06-22.05.34-69.79.34-81.78 0-36.43 88.1-25.34 68.29-67.72 8.9 5.87 19.33 8.25 29.31 8.11 6.49-.09 12.84-1.81 18.62-4.88-3.66 8.93-5.58 20.66 21.54 33.17 21.77 10.03 46.74 11.99 46.74 37.3 0 11.76-.06 55.64-.17 75.8z" fill="#f8be9b" fill-rule="evenodd"/><path clip-rule="evenodd" d="m95.93 172.16c-.45-2.24-1.25-4.62-2.47-7.2 8.9 5.87 19.33 8.25 29.31 8.11 6.49-.09 12.84-1.81 18.62-4.88-.85 2.07-1.62 4.28-1.93 6.63-5.24 2.47-10.91 3.86-16.7 3.91-9.06.15-18.5-1.81-26.83-6.57z" fill="#a37d66" fill-rule="evenodd"/><path clip-rule="evenodd" d="m24.84 314.46c.06-22.05.34-69.79.34-81.78 0-21.17 29.74-26.28 50.77-35.18 9.35 15.9 23.64 30.59 42.92 44.02 18.23-12.73 32-26.56 41.36-41.47.88.45 1.79.88 2.72 1.3 21.77 10.03 46.74 11.99 46.74 37.3 0 11.76-.06 55.64-.17 75.8h-184.68z" fill="#d81159" fill-rule="evenodd"/><path d="m54.06 263.41c0-4.42 3.6-7.99 8.02-7.99 4.39 0 7.99 3.57 7.99 7.99v51.05h-16.01z" fill="#800b35"/><g clip-rule="evenodd" fill-rule="evenodd"><path d="m166.57 125.76c0 27.92-21.06 48.25-43.8 48.56s-47.62-12.36-52.13-49.83c-4.54-37.47 13.1-56.78 36.65-61.97-.17 1.56-.25 3.12-.25 4.68 0 24.92 22.79 45.1 50.94 45.1 7.6-.01 8.59 1.64 8.59 13.46z" fill="#a37d66"/><path d="m166.57 125.76c0 27.92-21.06 48.25-43.8 48.56s-47.62-12.36-52.13-49.83c-4-33.22 9.38-52.16 28.88-59.64v2.38c0 15.93 23.64 49.89 59.3 49.89 2.98 0 5.36-.17 7.23.06.41 1.97.52 4.75.52 8.58z" fill="#f8be9b"/><path d="m190.49 314.38h-39.69c-.25-17.8 0-65.74 0-83.57 0-37.87 30.16-56.89 67.63-57.86l4.54-15.7c8.96-2.41 22.25-3.69 31.12-3.8s12.59-.37 22.22 4l3.15 15.51c37.53.94 67.78 19.96 67.78 57.86 0 17.83.26 65.76 0 83.57h-39.69-117.06z" fill="#f8be9b"/><path d="m221.5 162.35 1.47-5.1c8.96-2.41 22.25-3.69 31.12-3.8s12.59-.37 22.22 4l1.05 5.24c-7.34 4.05-15.34 6.38-23.27 6.49-10.67.15-22.18-1.67-32.59-6.83z" fill="#b58b71"/><path d="m190.49 314.38h-39.69c-.25-17.8 0-65.74 0-83.57 0-37.87 30.16-56.89 67.63-57.86 2.3 16.95 12.56 31.52 30.59 44.5 18-12.98 28.15-27.55 30.44-44.5 37.53.94 67.78 19.96 67.78 57.86 0 17.83.26 65.76 0 83.57h-39.69z" fill="#219ebc"/><path d="m190.49 314.38h-24.69l3.57-1.33c2.13-9.44 5.84-18.26 10.86-26.16l-7.51-16.53 16.44-16.44 16.53 7.51c7.91-5.05 16.75-8.76 26.16-10.86l6.38-17.01h23.24l6.41 17.01c9.41 2.1 18.26 5.81 26.16 10.86l16.53-7.51 16.44 16.44-7.51 16.53c5.02 7.91 8.73 16.72 10.83 26.16l3.57 1.33h-26.33z" fill="#187389"/><path d="m308.92 71.25c-.99 12.98.45 25.63.45 31.97 0 33.42-28.03 59.75-55.28 60.15-27.24.37-59.95-12.02-65.74-60.15-.08-.65-.17-1.33-.23-1.98 22.34-3.74 35.06-16.38 38.18-38.01 20.89 8.19 62.58 16.3 82.62 8.02z" fill="#f8be9b"/><path d="m248.86 28.02c15.87 0 17.15 8.9 48.84-.94 9.64-2.98 17.09 12.19 12.64 33.96-.17.79-.31 1.56-.45 2.35-.45 2.61-.74 5.24-.96 7.85-20.04 8.28-61.74.17-82.6-8.02-3.12 21.63-15.85 34.27-38.18 38.01-.06-.62-.11-1.25-.17-1.84-3.64-45.72 28.36-71.37 60.88-71.37z" fill="#218380"/><path d="m267.88 258.96-6.41-17.01h-23.24l-6.38 17.01c-9.41 2.1-18.25 5.81-26.16 10.86l-16.53-7.51-16.44 16.41 7.51 16.55c-5.02 7.91-8.73 16.72-10.86 26.16l-16.98 6.38v23.24l16.98 6.38c2.1 9.44 5.84 18.26 10.86 26.16l-7.51 16.55 16.44 16.44 16.53-7.51c7.91 5.02 16.75 8.73 26.16 10.83l6.38 17.01h23.24l6.41-17.01c9.41-2.1 18.26-5.81 26.16-10.83l16.53 7.51 16.44-16.44-7.51-16.55c5.02-7.91 8.73-16.72 10.83-26.16l17.01-6.38v-23.24l-17.01-6.38c-2.1-9.44-5.81-18.26-10.83-26.16l7.51-16.55-16.44-16.41-16.53 7.51c-7.91-5.05-16.75-8.76-26.16-10.86z" fill="#d81159"/><path d="m249.85 290.05c27.27 0 49.38 22.11 49.38 49.38s-22.11 49.38-49.38 49.38-49.38-22.11-49.38-49.38 22.11-49.38 49.38-49.38z" fill="#fff"/></g></svg>