<svg id="Capa_1" enable-background="new 0 0 512 512" viewBox="0 0 512 512" xmlns="http://www.w3.org/2000/svg"><g><g><path d="m345.111 256c0-45.727 37.202-82.93 82.93-82.93v-1.03h-366.23c-34.137 0-61.811 27.674-61.811 61.811v44.298c0 34.137 27.674 61.811 61.811 61.811h366.229v-1.03c-45.727 0-82.929-37.203-82.929-82.93z" fill="#c4e2ff"/><path d="m360.043 303.388h-354.658c9.655 21.552 31.282 36.571 56.426 36.571h366.229v-1.03c-28.116.001-52.993-14.077-67.997-35.541z" fill="#b3dafe"/><g><g><circle cx="428.04" cy="256" fill="#60b7ff" r="83.96"/></g><path d="m466.232 181.237c5.866 11.46 9.197 24.433 9.197 38.191 0 46.37-37.59 83.96-83.96 83.96h-32.732c15.126 22.079 40.519 36.571 69.304 36.571 46.37 0 83.96-37.59 83.96-83.96-.001-32.61-18.606-60.858-45.769-74.762z" fill="#26a6fe"/><g><g><path d="m453.156 295.147h-50.233c-5.78 0-10.465-4.685-10.465-10.465v-8.699c0-14.268 11.567-25.835 25.835-25.835h19.492c14.268 0 25.835 11.567 25.835 25.835v8.699c.002 5.779-4.684 10.465-10.464 10.465z" fill="#c4e2ff"/><path d="m442.857 250.647v14.317c0 6.062-4.914 10.976-10.976 10.976h-39.421c0 .014-.001.028-.001.043v8.7c0 5.78 4.685 10.465 10.465 10.465h50.233c5.78 0 10.465-4.685 10.465-10.465v-8.7c0-12.533-8.925-22.979-20.765-25.336z" fill="#b3dafe"/></g><circle cx="428.04" cy="231.791" fill="#fff" r="21.119"/><path d="m433.345 211.371c.563 1.903.877 3.912.877 5.998 0 11.663-9.455 21.119-21.119 21.119-1.836 0-3.606-.259-5.304-.699 2.586 8.74 10.664 15.121 20.242 15.121 11.663 0 21.119-9.455 21.119-21.119-.001-9.828-6.724-18.064-15.815-20.42z" fill="#f9f7f8"/></g></g></g><g fill="#26a6fe"><path d="m200.082 225.321c-4.142 0-7.5 3.358-7.5 7.5v23.068l-18.814-27.243c-1.865-2.701-5.271-3.874-8.403-2.898-3.134.977-5.268 3.878-5.268 7.16v46.271c0 4.142 3.358 7.5 7.5 7.5s7.5-3.358 7.5-7.5v-22.213l17.618 25.511c2.137 3.086 5.725 4.391 9.147 3.322 3.475-1.086 5.721-4.298 5.721-8.183v-44.796c-.001-4.141-3.359-7.499-7.501-7.499z"/><path d="m82.265 225.321c-4.142 0-7.5 3.358-7.5 7.5v46.358c0 4.142 3.358 7.5 7.5 7.5s7.5-3.358 7.5-7.5v-46.358c0-4.142-3.358-7.5-7.5-7.5z"/><path d="m146.525 248.5h-13.868c-4.142 0-7.5 3.358-7.5 7.5s3.358 7.5 7.5 7.5h5.15c-1.667 4.614-5.172 8.179-11.292 8.179-8.646 0-15.679-7.034-15.679-15.679s7.034-15.679 15.679-15.679c3.143 0 6.172.924 8.76 2.673 3.433 2.318 8.095 1.417 10.414-2.015s1.417-8.095-2.016-10.414c-5.078-3.431-11.011-5.245-17.158-5.245-16.917 0-30.679 13.763-30.679 30.679s13.763 30.679 30.679 30.679c16.197 0 27.509-12.616 27.509-30.679.001-4.141-3.357-7.499-7.499-7.499z"/><path d="m53.864 249.329c-5.39-1.988-10.429-4.146-12.28-4.954-.33-.337-.457-.78-.379-1.321.15-1.045 1.058-1.892 2.491-2.324 5.608-1.689 10.974 2.469 11.19 2.639 3.17 2.62 7.866 2.197 10.516-.958 2.665-3.17 2.255-7.901-.916-10.567-4.243-3.567-14.31-8.735-25.117-5.477-7.042 2.122-12.028 7.699-13.012 14.555-.929 6.474 1.879 12.703 7.33 16.256.331.216.679.405 1.04.566.27.121 6.705 2.985 13.947 5.656 2.5.922 5.307 2.631 4.989 4.412-.278 1.559-2.511 3.866-6.419 3.866-4.134 0-8.096-1.648-10.598-4.409-2.781-3.069-7.525-3.302-10.594-.521-3.069 2.782-3.302 7.525-.521 10.594 5.377 5.933 13.291 9.335 21.712 9.335 10.597 0 19.507-6.825 21.186-16.229 1.276-7.141-1.881-16.441-14.565-21.119z"/><path d="m269.091 225.321c-4.143 0-7.5 3.358-7.5 7.5v31.866c0 1.932-.559 4.001-4.609 6.041-1.271.64-2.665.951-4.259.951h-.016c-1.711-.002-3.189-.416-4.517-1.264-3.519-2.248-3.811-3.977-3.811-5.695v-31.899c0-4.142-3.358-7.5-7.5-7.5s-7.5 3.358-7.5 7.5v31.899c0 7.615 3.611 13.784 10.735 18.336 3.754 2.397 7.984 3.617 12.572 3.623h.035c3.937 0 7.641-.859 11.007-2.554 8.294-4.178 12.862-11.081 12.862-19.438v-31.866c.001-4.142-3.357-7.5-7.499-7.5z"/><path d="m303.071 225.321h-12.908c-1.993 0-3.904.793-5.312 2.205-1.402 1.406-2.187 3.31-2.187 5.295h-.001v46.358c0 4.142 3.357 7.5 7.5 7.5s7.5-3.358 7.5-7.5v-12.676c2.072-.01 4.112-.017 5.408-.017 11.49 0 20.839-9.233 20.839-20.582s-9.348-20.583-20.839-20.583zm0 26.164c-1.287 0-3.302.007-5.358.017l-.028-11.182h5.387c3.165 0 5.839 2.557 5.839 5.583s-2.675 5.582-5.84 5.582z"/></g></g><g/><g/><g/><g/><g/><g/><g/><g/><g/><g/><g/><g/><g/><g/><g/></svg>