<svg height="512pt" viewBox="0 -31 512 511" width="512pt" xmlns="http://www.w3.org/2000/svg"><path d="m377 262.664062h106v149h-106zm0 0" fill="#ff940c"/><path d="m7.5 411.664062h497v30.5h-497zm0 0" fill="#7d7d7d"/><path d="m469.832031 411.664062h34.667969v30.5h-34.667969zm0 0" fill="#636363"/><path d="m29 262.664062h106v149h-106zm0 0" fill="#ff940c"/><path d="m112.332031 262.664062h22.667969v149h-22.667969zm0 0" fill="#cc8322"/><path d="m97.5 125.332031h317v33.332031h-317zm0 0" fill="#f94530"/><path d="m383.5 125.332031h31v33.332031h-31zm0 0" fill="#d63b29"/><path d="m360 190.664062c0 9.574219-7.761719 17.335938-17.332031 17.335938-9.574219 0-17.332031-7.761719-17.332031-17.335938 0 9.574219-7.761719 17.335938-17.335938 17.335938-9.570312 0-17.332031-7.761719-17.332031-17.335938 0 9.574219-7.761719 17.335938-17.332031 17.335938-9.574219 0-17.332032-7.761719-17.332032-17.335938 0 9.574219-7.761718 17.335938-17.335937 17.335938-9.570313 0-17.332031-7.761719-17.332031-17.335938 0 9.574219-7.761719 17.335938-17.332032 17.335938-9.574218 0-17.332031-7.761719-17.332031-17.335938 0 9.574219-7.761719 17.335938-17.335937 17.335938-9.570313 0-17.332032-7.761719-17.332032-17.335938 0 9.460938-7.582031 17.140626-17 17.316407v203.683593h242v-203.679687c-9.421875-.179687-17.003906-7.855469-17.003906-17.320313zm0 0" fill="#ff940c"/><path d="m61.75 307.914062h40.5v58.5h-40.5zm0 0" fill="#58caee"/><path d="m504.5 262.667969h-127.5v-33.335938h127.5zm0 0" fill="#f94530"/><path d="m377 229.332031h22.667969v33.332031h-22.667969zm0 0" fill="#d63b29"/><path d="m450.25 366.417969h-40.5v-58.5h40.5zm0 0" fill="#58caee"/><path d="m360 190.664062c0 9.574219-7.761719 17.335938-17.332031 17.335938-9.574219 0-17.332031-7.761719-17.332031-17.335938 0 9.574219-7.761719 17.335938-17.335938 17.335938-9.570312 0-17.332031-7.761719-17.332031-17.335938 0 9.574219-7.761719 17.335938-17.332031 17.335938-9.574219 0-17.332032-7.761719-17.332032-17.335938 0 9.574219-7.761718 17.335938-17.335937 17.335938-9.570313 0-17.332031-7.761719-17.332031-17.335938 0 9.574219-7.761719 17.335938-17.332032 17.335938-9.574218 0-17.332031-7.761719-17.332031-17.335938 0 9.574219-7.761719 17.335938-17.335937 17.335938-9.570313 0-17.332032-7.761719-17.332032-17.335938 0 9.460938-7.582031 17.140626-17 17.316407v21.347656c9.417969-.175781 17-7.867187 17-17.328125 0 9.570312 7.761719 17.332031 17.332032 17.332031 9.574218 0 17.335937-7.761719 17.335937-17.332031 0 9.570312 7.757813 17.332031 17.332031 17.332031 9.570313 0 17.332032-7.761719 17.332032-17.332031 0 9.570312 7.761718 17.332031 17.332031 17.332031 9.574219 0 17.332031-7.757812 17.332031-17.332031 0 9.574219 7.761719 17.332031 17.332031 17.332031 9.574219 0 17.332031-7.757812 17.332031-17.332031 0 9.574219 7.761719 17.332031 17.335938 17.332031 9.570312 0 17.332031-7.757812 17.332031-17.332031 0 9.574219 7.761719 17.332031 17.332031 17.332031 9.574219 0 17.335938-7.757812 17.335938-17.332031 0 9.460938 7.582031 17.152344 17 17.328125v-21.34375c-9.417969-.179687-17-7.855469-17-17.320313zm0 0" fill="#cc8322"/><path d="m176.332031 294.664062h159.332031v117h-159.332031zm0 0" fill="#58caee"/><path d="m256 419.164062c-5.890625 0-10.667969-3.355468-10.667969-7.5v-117c0-4.140624 4.777344-7.5 10.667969-7.5s10.667969 3.359376 10.667969 7.5v117c0 4.144532-4.777344 7.5-10.667969 7.5zm0 0" fill="#48a6c4"/><path d="m169.332031 208c-9.570312 0-17.332031-7.761719-17.332031-17.332031v-32h34.667969v32c0 9.570312-7.761719 17.332031-17.335938 17.332031zm0 0" fill="#ebebeb"/><path d="m134.667969 208c-9.574219 0-17.332031-7.761719-17.332031-17.332031v-32h34.664062v32c0 9.570312-7.761719 17.332031-17.332031 17.332031zm0 0" fill="#d93c2a"/><path d="m238.667969 208c-9.574219 0-17.332031-7.761719-17.332031-17.332031v-32h34.664062v32c0 9.570312-7.761719 17.332031-17.332031 17.332031zm0 0" fill="#ebebeb"/><path d="m204 208c-9.574219 0-17.332031-7.761719-17.332031-17.332031v-32h34.667969v32c-.003907 9.570312-7.761719 17.332031-17.335938 17.332031zm0 0" fill="#d93c2a"/><path d="m308 208c-9.574219 0-17.332031-7.761719-17.332031-17.332031v-32h34.667969v32c-.003907 9.570312-7.761719 17.332031-17.335938 17.332031zm0 0" fill="#ebebeb"/><path d="m273.332031 208c-9.570312 0-17.332031-7.761719-17.332031-17.332031v-32h34.667969v32c0 9.570312-7.761719 17.332031-17.335938 17.332031zm0 0" fill="#d93c2a"/><path d="m377.332031 208c-9.570312 0-17.332031-7.761719-17.332031-17.332031v-32h34.667969v32c0 9.570312-7.761719 17.332031-17.335938 17.332031zm0 0" fill="#ebebeb"/><path d="m342.667969 208c-9.574219 0-17.332031-7.761719-17.332031-17.332031v-32h34.664062v32c0 9.570312-7.761719 17.332031-17.332031 17.332031zm0 0" fill="#d93c2a"/><path d="m170.332031 90.664062h25v34.667969h-25zm0 0" fill="#7d7d7d"/><path d="m316.667969 90.664062h25v34.667969h-25zm0 0" fill="#7d7d7d"/><path d="m134.832031 8h242.332031v82.667969h-242.332031zm0 0" fill="#f94530"/><path d="m350.667969 8h26.5v82.667969h-26.5zm0 0" fill="#d63b29"/><path d="m7.5 229.332031h127.5v33.332031h-127.5zm0 0" fill="#f94530"/><path d="m112.332031 229.332031h22.667969v33.332031h-22.667969zm0 0" fill="#d63b29"/><path d="m377 262.664062h22.667969v149h-22.667969zm0 0" fill="#cc8322"/><path d="m102.25 300.414062h-40.5c-4.140625 0-7.5 3.359376-7.5 7.5v58.5c0 4.144532 3.359375 7.5 7.5 7.5h40.5c4.140625 0 7.5-3.355468 7.5-7.5v-58.5c0-4.140624-3.359375-7.5-7.5-7.5zm-7.5 58.5h-25.5v-43.5h25.5zm0 0"/><path d="m409.75 300.414062c-4.140625 0-7.5 3.359376-7.5 7.5v58.5c0 4.144532 3.359375 7.5 7.5 7.5h40.5c4.140625 0 7.5-3.355468 7.5-7.5v-58.5c0-4.140624-3.359375-7.5-7.5-7.5zm33 58.5h-25.5v-43.5h25.5zm0 0"/><path d="m180 46c0 4.140625 3.359375 7.5 7.5 7.5h137c4.140625 0 7.5-3.359375 7.5-7.5s-3.359375-7.5-7.5-7.5h-137c-4.140625 0-7.5 3.355469-7.5 7.5zm0 0"/><path d="m483 313.164062c4.140625 0 7.5-3.355468 7.5-7.5v-35.5h14c4.140625 0 7.5-3.355468 7.5-7.5v-33.332031c0-4.140625-3.359375-7.5-7.5-7.5h-120v-7.390625c10.210938-3.082031 17.667969-12.574218 17.667969-23.773437v-24.5h12.332031c4.140625 0 7.5-3.359375 7.5-7.5v-33.335938c0-4.140625-3.359375-7.5-7.5-7.5h-65.332031v-19.667969h28c4.140625 0 7.5-3.355468 7.5-7.5v-82.664062c0-4.140625-3.359375-7.5-7.5-7.5h-159.667969c-4.140625 0-7.5 3.359375-7.5 7.5s3.359375 7.5 7.5 7.5h152.167969v67.667969h-227.335938v-67.667969h47.167969c4.140625 0 7.5-3.359375 7.5-7.5s-3.359375-7.5-7.5-7.5h-54.667969c-4.140625 0-7.5 3.359375-7.5 7.5v82.667969c0 4.140625 3.359375 7.5 7.5 7.5h28v19.667969h-65.332031c-4.140625 0-7.5 3.355468-7.5 7.5v33.332031c0 4.140625 3.359375 7.5 7.5 7.5h12.332031v24.5c0 11.199219 7.457031 20.691406 17.667969 23.773437v7.390625h-54.167969c-4.140625 0-7.5 3.359375-7.5 7.5 0 4.144531 3.359375 7.5 7.5 7.5h54.167969v18.332031h-112.5v-18.332031h30.332031c4.144531 0 7.5-3.355469 7.5-7.5 0-4.140625-3.355469-7.5-7.5-7.5h-37.832031c-4.140625 0-7.5 3.359375-7.5 7.5v33.332031c0 4.144532 3.359375 7.5 7.5 7.5h14v134h-14c-4.140625 0-7.5 3.359376-7.5 7.5v30.5c0 4.144532 3.359375 7.5 7.5 7.5h497c4.140625 0 7.5-3.355468 7.5-7.5v-30.5c0-4.140624-3.359375-7.5-7.5-7.5h-14v-70.5c0-4.140624-3.359375-7.5-7.5-7.5s-7.5 3.359376-7.5 7.5v70.5h-91v-134h91v35.5c0 4.144532 3.359375 7.5 7.5 7.5zm14-76.332031v18.332031c-11.253906 0-97.136719 0-112.5 0v-18.332031zm-153.832031 167.332031v-109.5c0-4.140624-3.359375-7.5-7.5-7.5h-159.335938c-4.140625 0-7.5 3.359376-7.5 7.5v109.5h-26.332031c0-13.222656 0-127.105468 0-150.664062h227v150.664062zm-159.335938 0v-102h64.667969v102zm79.667969-102h64.667969v102h-64.667969zm-84.332031-136v24.5c0 5.425782-4.410157 9.835938-9.832031 9.835938-5.425782 0-9.835938-4.410156-9.835938-9.835938v-24.5zm34.664062 0v24.5c0 5.425782-4.410156 9.835938-9.832031 9.835938s-9.832031-4.410156-9.832031-9.835938v-24.5zm34.667969 0v24.5c0 5.425782-4.410156 9.835938-9.832031 9.835938s-9.832031-4.410156-9.832031-9.835938v-24.5zm34.667969 0v24.5c0 5.425782-4.410157 9.835938-9.832031 9.835938-5.425782 0-9.835938-4.410156-9.835938-9.835938v-24.5zm34.664062 0v24.5c0 5.425782-4.410156 9.835938-9.832031 9.835938s-9.832031-4.410156-9.832031-9.835938v-24.5zm34.667969 0v24.5c0 5.425782-4.410156 9.835938-9.832031 9.835938s-9.832031-4.410156-9.832031-9.835938v-24.5zm-210 48.0625c3.601562-1.203124 6.839844-3.203124 9.496094-5.796874 9.816406 9.582031 25.207031 9.242187 34.671875.003906 9.699219 9.464844 25.0625 9.371094 34.667969 0 9.683593 9.457031 25.054687 9.371094 34.664062 0 9.871094 9.628906 25.246094 9.199218 34.667969 0 9.792969 9.554687 25.175781 9.261718 34.667969 0 9.726562 9.496094 25.113281 9.324218 34.667968-.003906 2.660156 2.59375 5.894532 4.597656 9.5 5.796874v24.273438h-227c-.003906-7.199219-.003906-15.667969-.003906-24.273438zm244.667969-23.5625c0 5.390626-4.398438 9.929688-10.023438 9.820313-5.316406-.101563-9.644531-4.507813-9.644531-9.820313v-24.5h19.667969zm-53-72.832031h-10v-19.667969h10zm-25-19.667969v19.667969h-106.335938v-19.667969zm-131.335938 0h10v19.667969h-10zm-72.832031 34.667969h302v18.332031c-42.941406 0-275.320312 0-302 0zm19.832031 33.332031h19.667969v24.5c0 5.3125-4.324219 9.71875-9.644531 9.820313-5.628907.109375-10.019531-4.433594-10.019531-9.820313v-24.5zm-88.332031 104h91v134h-91zm460.5 164.5h-482v-15.5h482zm0 0"/></svg>