<svg clip-rule="evenodd" fill-rule="evenodd" height="512" image-rendering="optimizeQuality" shape-rendering="geometricPrecision" text-rendering="geometricPrecision" viewBox="0 0 173.397 173.397" width="512" xmlns="http://www.w3.org/2000/svg"><g id="Layer_x0020_1"><circle cx="86.699" cy="86.699" fill="#db4437" r="84.667"/><g id="_409686696" fill="#fff"><path id="_409687776" d="m122.819 67.9554-6.5863 66.3535c-.3755 3.7833-3.256 6.8183-7.0583 6.8183h-44.9516c-3.8023 0-6.6826-3.033-7.0583-6.8183l-6.5863-66.3535zm-51.7665 13.1043c-.1058-1.942 1.3919-3.6122 3.3339-3.718 1.942-.106 3.6123 1.3915 3.7181 3.3335.7584 13.9117 1.517 27.8233 2.2752 41.7348.082 1.5031-.7391 2.832-2.1199 3.4315-1.3808.5992-2.9123.2915-3.9543-.795-.5644-.5884-.9298-1.373-.9775-2.2478-.7586-13.9128-1.5168-27.826-2.2755-41.739zm27.9586-3.718c1.9336.1054 3.4391 1.7842 3.3337 3.7179-.7581 13.9116-1.5168 27.8234-2.2752 41.7349-.0819 1.5024-1.0418 2.7337-2.4786 3.18-1.437.4462-2.9254-.0248-3.844-1.2165-.4985-.6468-.7772-1.4676-.7295-2.3438.7582-13.913 1.5168-27.826 2.2755-41.739.1058-1.942 1.7761-3.4395 3.7181-3.3335z"/><rect id="_409687656" height="12.415" rx="6.207" width="86.35" x="43.524" y="53.122"/><path id="_409687992" d="m108.151 53.7263h-6.1795v-7.9407c0-4.0349-3.3012-7.336-7.3359-7.336h-15.8741c-4.0347 0-7.3359 3.3012-7.3359 7.336v7.9407h-6.1796v-7.9408c0-7.4455 6.0699-13.5155 13.5154-13.5155h15.8742c7.4455 0 13.5154 6.0701 13.5154 13.5155z"/></g></g></svg>