<svg xmlns="http://www.w3.org/2000/svg" xmlns:xlink="http://www.w3.org/1999/xlink" width="574" height="587.53" viewBox="0 0 574 587.53"><defs><style>.a,.b,.c{fill:none;}.a{clip-rule:evenodd;}.aa,.ab,.ac,.ad,.ae,.af,.ah,.aj,.ak,.ap,.ar,.as,.c,.f,.g,.h,.i,.j,.l,.n,.o,.p,.q,.r,.s,.t,.u,.x,.y{fill-rule:evenodd;}.d,.y{fill:#fff;}.d{opacity:0.502;}.e{clip-path:url(#c);}.f{fill:#ff9e83;}.g{fill:#f4f4f4;}.h{fill:#f7a444;}.i{fill:#8d0000;}.j{fill:#fdb6a3;}.k{clip-path:url(#d);}.l{fill:#fa987d;}.m{clip-path:url(#f);}.n{fill:#1d1d1d;}.o{fill:#f04042;}.p{fill:#484848;}.r{stroke:#000;stroke-linecap:round;stroke-linejoin:round;stroke-width:0.24px;}.s{fill:#fdbcaa;}.t{fill:#323232;}.u{fill:#0094a1;}.v{clip-path:url(#h);}.w{clip-path:url(#j);}.x{fill:#1e92df;}.z{clip-path:url(#l);}.aa{fill:#74bceb;}.ab{fill:#ffd3c7;}.ac{fill:#fac78c;}.ad{fill:#ccd6e1;}.ae{fill:#006fb8;}.af{fill:#6ee8f5;}.ag{clip-path:url(#n);}.ah{fill:#50603f;}.ai{clip-path:url(#p);}.aj{fill:#ff9071;}.ak{fill:#975200;}.al{clip-path:url(#r);}.am{clip-path:url(#t);}.an{clip-path:url(#v);}.ao{clip-path:url(#x);}.ap{fill:#d5608f;}.aq{clip-path:url(#z);}.ar{fill:#eee;}.as{fill:#cdd7e2;}.at{filter:url(#a);}</style><filter id="a" x="0" y="268.214" width="574" height="319.316" filterUnits="userSpaceOnUse"><feGaussianBlur stdDeviation="10"></feGaussianBlur></filter><clipPath id="c"><path class="a" d="M1521.14,1240.36c141.931,0,257.162,115.23,257.162,257.162s-115.23,257.162-257.162,257.162-257.161-115.23-257.161-257.162,115.23-257.162,257.161-257.162Z" transform="translate(-1263.978 -1240.36)"></path></clipPath><clipPath id="d"><path class="b" d="M5.569,38.045C3.967,35.759,2.988,19.3,2.551,15.962,1.851,10.617.711,5.34,0,0L28.2,13.923c.407,4.353,3.752,18.715,2.241,22.023-1.439,3.15-8.682,5.212-15.09,5.212C11.034,41.157,7.092,40.219,5.569,38.045Z"></path></clipPath><clipPath id="f"><path class="b" d="M5.738,44.617C3.5,38.373-2.4,21.181,1.069,10.844,3.489,3.641,14.456,1.828,17.6.7,25.256-2.04,34.249,3.489,37.67,13.042c1.916,5.35,1.024,9.544,1.763,14.274s2.779,9.529,2.677,14.151c-.159,7.262-3.76,15.194-8.145,17.881a10.934,10.934,0,0,1-5.751,1.441C20.047,60.788,9.2,54.274,5.738,44.617Z"></path></clipPath><clipPath id="h"><path class="b" d="M.369,35.718c-1.486-3.319,1.965-17.655,2.4-22.006L31.08,0c-.75,5.335-1.93,10.6-2.669,15.942-.462,3.338-1.563,19.786-3.182,22.06-1.514,2.126-5.354,3.04-9.588,3.04C9.179,41.043,1.8,38.915.369,35.718Z"></path></clipPath><clipPath id="j"><path class="b" d="M8.014,59.255C3.648,56.536.106,48.578,0,41.314c-.067-4.623,2.007-9.4,2.783-14.131S2.7,18.258,4.653,12.923C8.145,3.4,17.179-2.066,24.814.733,27.95,1.882,38.9,3.776,41.269,11c3.4,10.362-2.637,27.51-4.92,33.737-3.514,9.586-14.327,16-22.482,16A11,11,0,0,1,8.014,59.255Z" transform="translate(0)"></path></clipPath><clipPath id="l"><path class="b" d="M0,442.559V17.29S4.327,9.182,7.157,6.374C10.061,3.493,17.426,0,17.426,0H235.153s7.484,4.06,10.332,7.007c2.686,2.779,6.756,10.68,6.756,10.68V442.559Z"></path></clipPath><clipPath id="n"><path class="b" d="M13.05,52.374C10.5,49.4,6.848,26.552,5.774,21.944,4.056,14.575,1.732,7.362,0,0L41.327,15.541c1.172,6.025,7.834,25.624,6.181,30.454-1.795,5.246-14.335,9.563-24.055,9.562C18.905,55.556,14.973,54.611,13.05,52.374Z"></path></clipPath><clipPath id="p"><path class="b" d="M27.117,56.77c-1.06-.421-2.34-9.1-2.6-9.291-.768-.571-1.715-.967-2.524-1.487-3.408-2.191-7.369-5.115-8.479-9.248L31.627,11.789a22.37,22.37,0,0,1,2.738.624,11.537,11.537,0,0,1,1.933.745,5.521,5.521,0,0,1,2.033,1.466c.777,1.053.342,2.6.389,3.8a13.2,13.2,0,0,0,.32,2.315c.425,1.929,1.648,3.609,1.472,5.649-.263,3.066-1.645,6.044-1.429,9.171a37.724,37.724,0,0,0,1.1,5.487c.605,2.734,2.246,12.843,1.858,13.465A9.334,9.334,0,0,1,36.13,58.1a14.508,14.508,0,0,1-2.1.152A18.513,18.513,0,0,1,27.117,56.77ZM4.626,30.156a3.17,3.17,0,0,1-1.417-1.571,2.579,2.579,0,0,1,1.18-3.131,2.452,2.452,0,0,1-.628-.9,2.949,2.949,0,0,1,.184-1.971,4.952,4.952,0,0,1,.847-1.619,3.076,3.076,0,0,1,1.858-.992c-.129-.111-.256-.225-.382-.339a7.593,7.593,0,0,1-.72-.708,2,2,0,0,1-.446-.566,2.374,2.374,0,0,1-.224-1.74,4.715,4.715,0,0,1,.567-1.079,5.508,5.508,0,0,1,1.133-1.42,4.186,4.186,0,0,1,1.484-.686,9.656,9.656,0,0,1,1.352-.342L8.384,20.769,8.3,20.73c-.019.053-.04.1-.061.156-.009.022-.021.07-.047.081-.063.026-.2-.073-.249-.1-.209-.118-.418-.243-.618-.377l-.747,5.8c-.113-.012-.226-.021-.338-.032-.02.146-.052.29-.079.422-.133.656-.305,1.3-.5,1.945-.061.2-.127.407-.205.605l.17,1.242A4.474,4.474,0,0,1,4.626,30.156ZM3.377,6.606A30.806,30.806,0,0,1,.916,3.935,4.435,4.435,0,0,1,.029,2.476,2.5,2.5,0,0,1,1.386.036,3.4,3.4,0,0,1,3.465.506,28.442,28.442,0,0,1,6.019,2.06c.513.331,4.805,4.076,5.4,4.231l-1.817,6.24C8.629,11.415,4.666,7.931,3.377,6.606Z" transform="translate(0)"></path></clipPath><clipPath id="r"><path class="b" d="M.279,48.924C-1.479,43.787,5.608,22.94,6.854,16.531L50.813,0C48.97,7.831,46.5,15.5,44.671,23.342c-1.142,4.9-5.022,29.208-7.739,32.369C34.886,58.09,30.7,59.095,25.866,59.1,15.527,59.1,2.188,54.5.279,48.924Z" transform="translate(0)"></path></clipPath><clipPath id="t"><path class="b" d="M7.253,54.45A10.933,10.933,0,0,1,.111,50.623c-.493-.7.788-12.63,1.323-15.866a44.213,44.213,0,0,0,.94-6.487C2.428,24.6.624,21.2.122,17.633c-.334-2.375.99-4.417,1.366-6.7a15.441,15.441,0,0,0,.228-2.728c-.021-1.4-.627-3.184.214-4.466A6.471,6.471,0,0,1,4.215,1.9,13.528,13.528,0,0,1,6.43.9,26.119,26.119,0,0,1,9.593,0L32.354,28.044c-1.037,4.9-5.485,8.574-9.333,11.352-.914.66-2,1.183-2.859,1.9-.29.241-1.239,10.471-2.452,11.031A21.093,21.093,0,0,1,8.793,54.52C8.292,54.52,7.778,54.5,7.253,54.45Zm34.055-35.7c-.1-.227-.2-.461-.278-.695-.263-.738-.506-1.485-.7-2.243-.04-.153-.086-.319-.119-.489-.131.02-.262.038-.394.059l-1.24-6.736c-.226.169-.462.328-.7.48-.055.035-.209.16-.285.133-.031-.011-.047-.066-.06-.092-.028-.059-.056-.118-.082-.178l-.1.051L35.658.123a11.276,11.276,0,0,1,1.6.314,4.907,4.907,0,0,1,1.779.708,6.453,6.453,0,0,1,1.415,1.59,5.515,5.515,0,0,1,.732,1.227,2.782,2.782,0,0,1-.151,2.049,2.347,2.347,0,0,1-.486.69,8.88,8.88,0,0,1-.8.873c-.141.141-.282.282-.426.42a3.6,3.6,0,0,1,2.236,1.042,5.8,5.8,0,0,1,1.093,1.84,3.453,3.453,0,0,1,.34,2.294,2.867,2.867,0,0,1-.678,1.091,3.02,3.02,0,0,1,1.578,3.588,3.714,3.714,0,0,1-1.558,1.927,5.226,5.226,0,0,1-1.148.432Z"></path></clipPath><clipPath id="v"><path class="b" d="M.886,22.578a2.613,2.613,0,0,1-.68-1.06A3.029,3.029,0,0,1,.019,20l2.159-1.057c-.2-.1-.4-.206-.59-.318a.92.92,0,0,1-.427-.374,1.24,1.24,0,0,1-.044-.64,6.547,6.547,0,0,1,.442-1.483c.4-1.054,1.082-2.515,1.559-3.537a6.971,6.971,0,0,1-.7-.807L5.131,6.792c.3.276.557.6.83.9A16.851,16.851,0,0,1,7.7,9.891,5.037,5.037,0,0,1,8.6,11.9a2.68,2.68,0,0,1-1.971,2.792c.227.131.448.272.664.421.829.57,1.842,1.5,1.719,2.624a2.2,2.2,0,0,1-.286.825,3.274,3.274,0,0,1-.552.725,4.582,4.582,0,0,1-.93.731,2.763,2.763,0,0,1-2.3.065c-.168-.052-.334-.108-.5-.166a1.513,1.513,0,0,1,.13,1.226,2.6,2.6,0,0,1-.475.785,2.953,2.953,0,0,1-1.335.978,1.952,1.952,0,0,1-.6.093A2.059,2.059,0,0,1,.886,22.578ZM28.848,11.272a10.066,10.066,0,0,1,.2-5.674,18,18,0,0,1,1.524-2.609c.17-.275.341-.551.522-.819a7.461,7.461,0,0,1,.521-.682c.732-.848,1.741-1.7,2.922-1.442A1.372,1.372,0,0,1,35.153.3c1.1.915.314,2.292-.038,3.352A8.321,8.321,0,0,0,34.794,4.9c-.284,1.692.215,3.425.317,5.114.081,1.335-.232,2.7-.079,4.025l-4.506,2.625C29.851,15.866,29.035,12.261,28.848,11.272Z"></path></clipPath><clipPath id="x"><path class="b" d="M39.905,24.816a3.455,3.455,0,0,1-1.623-1.059,3.049,3.049,0,0,1-.605-.888,1.771,1.771,0,0,1,.075-1.443q-.285.118-.573.226a3.236,3.236,0,0,1-2.7.069,5.375,5.375,0,0,1-1.134-.8,3.853,3.853,0,0,1-.692-.813,2.582,2.582,0,0,1-.386-.947c-.215-1.3.911-2.458,1.844-3.178.243-.187.492-.367.75-.534a3.139,3.139,0,0,1-2.481-3.141A5.9,5.9,0,0,1,33.3,9.9a19.725,19.725,0,0,1,1.9-2.68c.3-.368,1.268-1.492,1.6-1.834l2.806,6.4a1.927,1.927,0,0,0-.4,1.439c.623,1.165,1.149,2.38,1.681,3.588a7.668,7.668,0,0,1,.61,1.707,1.457,1.457,0,0,1-.011.752,1.077,1.077,0,0,1-.475.464c-.219.143-.443.279-.67.409l2.592,1.1a3.546,3.546,0,0,1-.123,1.786,3.059,3.059,0,0,1-.728,1.282,2.432,2.432,0,0,1-1.59.577A2.241,2.241,0,0,1,39.905,24.816ZM1.6,16.483c.095-1.557-.357-3.137-.347-4.7.013-1.983.487-4.041.048-6A9.789,9.789,0,0,0,.844,4.339C.364,3.122-.641,1.56.587.421a1.608,1.608,0,0,1,.7-.336c1.365-.377,2.6.557,3.509,1.5a8.769,8.769,0,0,1,.653.765c.23.3.447.613.663.925A21.079,21.079,0,0,1,8.062,6.232a11.793,11.793,0,0,1,.593,6.624c-.156,1.169-1.356,8.525-2.1,9.5Z"></path></clipPath><clipPath id="z"><path class="b" d="M0,167.636V0H167.636V167.636Z"></path></clipPath></defs><g transform="translate(-651 -196.286)"><g class="at" transform="matrix(1, 0, 0, 1, 651, 196.29)"><path class="d" d="M514,264.5c0,154.311-115.09,259.316-257.027,259.316S0,417.294,0,264.5Z" transform="translate(30 23.71)"></path></g><g transform="translate(-582.978 -853.512)"><g transform="translate(1263.978 1087.688)"><g class="e" transform="translate(0)"><path class="f" d="M1746.922,2475.527q-1.377-3.267-2.748-6.538c-5.2-12.413-10.175-24.9-15.169-37.394-3.65-9.13-7.414-17.884-9.643-27.5-1.026-4.426-2.23-9.282-1.086-13.8a16.294,16.294,0,0,1,6.472-9.008c14.129-10.021,30.5-.161,39.948,11.381,12.146,14.836,17.759,33.163,21.812,51.532a394.309,394.309,0,0,1,7.61,44.236c.839,8.033,2.154,21.984-2.095,27.489s-17.247,8.628-23.4,5.541-10.192-15.921-13.516-24.065c-2.929-7.174-5.654-14.483-8.185-21.873Z" transform="translate(-1627.573 -2151.108)"></path><path class="g" d="M1418.741,2319.39c-2.5.832-17.029,8.038-17.469,10.426-.356,1.933,12.835,17.47,14.691,19.944,14.911,19.882,29.788,39.817,44.084,60.157a165.181,165.181,0,0,1,12.4,20.944c1.568,3.135,1.97,8.356,4.754,10.879.949.86,3.153.475,4.254.372,9.006-.841,17.825-3.215,26.615-5.23,3.8-.871,7.611-1.714,11.378-2.708,6.715-1.772,2.961-5.918.709-11.657-6.6-16.83-16.334-32.213-23.361-48.86-5.839-13.831-10.414-28.007-17.689-41.2-5.54-10.048-10.826-19.935-23.466-20.536l-36.9,7.473Z" transform="translate(-1373.968 -2098.854)"></path><path class="h" d="M1571.928,2293.16c.445-1.118,3.493-8.4,3.885-8.646.557-.353,8.859,2.67,9.952,3.016,1.018.323,7.023,1.783,7.43,2.673.453.988-.344,3.136-.526,4.122-.611,3.31-.384,6.679-.891,9.959l-19.85-11.124Z" transform="translate(-1510.697 -2076.876)"></path><path class="i" d="M1429.375,1966.934c-13.036-8.828-27.271-3.393-34.936,9.069-3.925,6.382-2.339,20.741,10.3,29.941,20.723,15.079,35.648,7.335,34.053,3.092-2.19-5.831.393-25.088-1.2-30.34a25.005,25.005,0,0,0-8.217-11.762Z" transform="translate(-1366.979 -1818.986)"></path><path class="j" d="M1395.563,2100.472c1.677-2.144,5.235-2.167,7.94-.052s9.217,12.165,7.54,14.31-10.912-4.423-13.617-6.539-3.54-5.575-1.863-7.719Z" transform="translate(-1368.706 -1928.151)"></path><path class="j" d="M1454.688,2180.988c.711,5.341,1.851,10.617,2.551,15.962.437,3.342,1.416,19.8,3.018,22.083,3.783,5.4,22.467,3.174,24.875-2.1,1.511-3.308-1.834-17.669-2.241-22.023l-28.2-13.923Z" transform="translate(-1416.768 -1993.958)"></path></g></g><g transform="translate(1301.898 1274.719)"><g class="k" transform="translate(0 0)"><path class="l" d="M1497.665,2029.029c-1.214-4.295.154-8.924-1.763-14.274-3.421-9.552-12.414-15.081-20.07-12.339s-11.094,12.723-7.673,22.275a22.828,22.828,0,0,0,1.546,3.414c-8.745,5.581-9.531,7.63-5.736,18.225,4.377,12.221,26.657,22.95,35.328,12.676,3.317-3.93,5.876-12.927,3.887-18.483-1.559-4.353-4.365-7.407-5.52-11.495Z" transform="translate(-1460.393 -2037.359)"></path></g></g><g transform="translate(1263.978 1087.688)"><g class="e" transform="translate(0)"><path class="j" d="M1463.6,1997.119c-.739-4.729.154-8.924-1.763-14.274-3.421-9.552-12.414-15.081-20.07-12.339-3.144,1.126-14.112,2.938-16.531,10.142-3.472,10.337,2.433,27.529,4.669,33.773,4.377,12.221,20.591,19.409,28.227,14.73,4.385-2.687,7.986-10.619,8.145-17.881.1-4.623-1.937-9.414-2.677-14.152Z" transform="translate(-1392.319 -1824.764)"></path></g></g><g transform="translate(1295.83 1232.728)"><g class="m" transform="translate(0 0)"><path class="l" d="M1423.619,2142.025a9.377,9.377,0,1,0,10.806,7.687,9.381,9.381,0,0,0-10.806-7.687Z" transform="translate(-1417.465 -2107.676)"></path><path class="l" d="M1608.735,2095.485a9.377,9.377,0,1,0,10.805,7.687,9.382,9.382,0,0,0-10.805-7.687Z" transform="translate(-1565.773 -2070.39)"></path></g></g><g transform="translate(1263.978 1087.688)"><g class="e" transform="translate(0)"><path class="n" d="M1576.928,2107.5a2.055,2.055,0,1,0,2.647,1.2,2.056,2.056,0,0,0-2.647-1.2Z" transform="translate(-1513.635 -1934.978)"></path><path class="n" d="M1505.565,2118.629a2.055,2.055,0,1,0,2.647,1.2,2.056,2.056,0,0,0-2.647-1.2Z" transform="translate(-1456.462 -1943.892)"></path><path class="i" d="M1572.45,2072.612a1.168,1.168,0,0,0-1.3-1.011l-6.313.964a1.168,1.168,0,0,0-.944,1.354h0a1.168,1.168,0,0,0,1.3,1.01l6.313-.964a1.167,1.167,0,0,0,.944-1.354Z" transform="translate(-1504.244 -1906.311)"></path><path class="i" d="M1480.6,2083.212a1.168,1.168,0,0,0-1.478-.735l-6,2.185a1.168,1.168,0,0,0-.66,1.513h0a1.169,1.169,0,0,0,1.478.735l6-2.185a1.168,1.168,0,0,0,.66-1.513Z" transform="translate(-1430.946 -1914.982)"></path><path class="i" d="M1481.637,1988.146s16.672-3.112,19.6-4.4c1.1-.485,2.27-.363,3.4-.813,1.74-.692,3.479-1.846,5.434-1.709,3.788.267,3.939,2.45,2.2,4.609,4.8,1.39,4.135,7.676-3.3,8.932-8.919,1.506-19.281-2.979-27.335-6.622Z" transform="translate(-1438.359 -1833.907)"></path><path class="i" d="M1429.573,2032.133s-.821,6.34-4.009,10.5a23.18,23.18,0,0,1-5.88,5.439l.371,5.145-1.258.337s-1.24-4.115-1.324-4.39a66.972,66.972,0,0,0-3.312-9.768l15.411-7.26Z" transform="translate(-1384.3 -1874.701)"></path><path class="o" d="M1379.312,1950.715l4.825-2.457c-.732-2.69-9.19-8.721-11.54-9.528a18.291,18.291,0,0,0-7.779-.669,29.576,29.576,0,0,0-13.224,4.771c-4.976,3.138-9.147,7.833-9.052,17.137.019,1.912.135,5.09.135,5.09s-4.806,3.223-7.22,4.6c-1.2.686-6.271,4.878-3.28,6.621,2.391,1.393,11.641-4.719,13.533-5.888,11-6.792,22.764-12.636,33.6-19.681Z" transform="translate(-1317.87 -1799.225)"></path><path class="i" d="M1546.321,1975.526s-4.808,2.583-6.446,3.4c-.4.2-.8.4-1.183.617-.1.057-.352.271-.48.238a4.989,4.989,0,0,1-.087-1.044,4.6,4.6,0,0,1,.858-3.057c2-2.55,5.252-2.031,7.338-.15Z" transform="translate(-1483.614 -1828.076)"></path><path class="h" d="M1663.431,2303.713c14.2-2.716,29.472,2.852,40.408,12.09a84.034,84.034,0,0,1,16.951,18.943c5.2,8.235,12.307,22.43,12.307,22.43s-17.5,5.95-28.255,9.825c4.343,9.813,8.982,19.58,14.086,28.956,58.058,106.671,7.258,115.78-13.675,78.93-1.1-1.937-22.681-63.151-24.76-69.165-3.883-11.237,5.513-28.577.972-39.558-3.818-9.233-9.126-17.62-13.311-26.659-3.975-8.587-6.678-18.076-11.681-26.157,0,0,5.208-9.662,6.959-9.636Z" transform="translate(-1578.43 -2091.729)"></path><path class="p" d="M1723.735,2148.105a3.266,3.266,0,0,0-1-2.127,2.715,2.715,0,0,0-2.068-.753l-17.116,1.324a2.713,2.713,0,0,0-1.928,1.062,3.264,3.264,0,0,0-.658,2.255c.627,8.1,2.309,29.836,2.936,37.935a3.266,3.266,0,0,0,1,2.127,2.714,2.714,0,0,0,2.068.753l17.116-1.324a2.714,2.714,0,0,0,1.928-1.062,3.265,3.265,0,0,0,.658-2.255l-2.936-37.935Z" transform="translate(-1614.07 -1965.3)"></path><path class="q" d="M1770.685,2159.535a1.416,1.416,0,0,0,1.038-.6,1.963,1.963,0,0,0,.358-1.294c0-.019,0-.037,0-.056a1.962,1.962,0,0,0-.532-1.232,1.417,1.417,0,0,0-1.11-.449l-4.772.33a1.417,1.417,0,0,0-1.038.6,1.961,1.961,0,0,0-.358,1.293c0,.019,0,.037,0,.056a1.965,1.965,0,0,0,.532,1.232,1.416,1.416,0,0,0,1.11.449l4.772-.33Z" transform="translate(-1664.788 -1973.861)"></path><path class="r" d="M1752.681,2222.928a2.724,2.724,0,1,1-2.506,2.926,2.726,2.726,0,0,1,2.506-2.926Z" transform="translate(-1653.496 -2027.552)"></path><path class="s" d="M1674.221,2261.089c1.038-.7,2.108-1.363,3.155-2.017,3.561-2.224,7.221-4.27,10.954-6.189,1.536-.79,3.078-1.565,4.639-2.3a5.772,5.772,0,0,1,2.267-.819c1.074.038.851,1.92.672,2.564-.58,2.091-3.187,3.438-4.774,4.655-1.43,1.1-2.871,2.178-4.309,3.263q-.817.616-1.628,1.24c1-.313,2.011-.594,3.027-.833,1.454-.342,3.549-.834,5-.186,1.671.745.519,3.078-.377,3.967-.072.072-.147.139-.224.2a3.91,3.91,0,0,1,1.188.148c1.682.507.868,3.545.152,4.548a2.821,2.821,0,0,1-.29.344c1.149.353,1.144,2.162.642,3.049a4.217,4.217,0,0,1-1.863,1.424c-5.458,2.757-11.377,3.408-17.16,5.1,0,0-6.7-9.013-8.052-9.962-2.682-1.886-3.409-8.14-5.477-10.641a9,9,0,0,1-.684-.937c-.531-.843-1.855-4.024.785-4.271,1.646-.154,3.111,2.257,4.212,3a35.569,35.569,0,0,0,8.146,4.647Z" transform="translate(-1581.475 -2049.054)"></path><path class="s" d="M1367.9,2481.265q-2.3-2.7-4.6-5.4c-8.735-10.24-17.637-20.307-26.539-30.4-6.5-7.374-12.621-14.681-20.2-21.008-3.488-2.911-7.279-6.175-11.825-7.188a16.293,16.293,0,0,0-10.959,1.715c-15.315,8.093-13.894,27.15-7.852,40.788,7.767,17.531,21.6,30.8,36.163,42.7a394.3,394.3,0,0,0,36.054,26.736c6.792,4.371,18.652,11.835,25.481,10.524s15.477-11.5,15.495-18.388-9.616-16.275-15.387-22.915q-7.625-8.774-15.833-17.167Z" transform="translate(-1278.138 -2182.997)"></path><path class="s" d="M1583.081,2328.623c.506-3.979,11.46-.449,11.36,2.241-.284,7.629.325,15.186.706,22.8a340.852,340.852,0,0,1-.738,42.7c-1.416,19.063-1.628,41.118-12.481,57.733-2.895,4.431-8.431,11.595-14,12.75-4.082.847-8.242-1.816-10.829-4.731-5.479-6.173-7.126-15.962-7.37-23.979-.214-7.059,2.474-13.423,4.777-19.971,2.76-7.846,5.524-15.686,8.418-23.484,5.971-16.094,12.626-32.376,16.643-49.1,1.128-4.7,2.9-12.127,3.515-16.964Z" transform="translate(-1492.902 -2110.806)"></path><path class="h" d="M1302.25,2330.617c1.009-2.418,3.067-7.227,3.384-7.428.558-.353,8.86,2.671,9.952,3.017,1.019.323,7.43,2.673,7.43,2.673s-.844,10.014-1.36,13.686c2.6,7.552,6.221,14.778,9.432,22.056,5.653,12.814,11.189,25.755,18.091,37.959,5.837,10.321,13.2,20.63,17.395,31.787.3.787.348,1.52-.52,1.912-2.9,1.308-7.111,1.141-10.193,1.237-18.952.586-27.832-12.764-37.655-26.175-17.2,14.159-42.471,36-50.318,40.971-1.46.925-4.089-87.067-3.723-91.594,1.038-12.818,14.793-19.855,25.1-24.677a97.443,97.443,0,0,1,12.984-5.423Z" transform="translate(-1264.101 -2107.861)"></path><path class="t" d="M3445.315,2056.776s35.69-.091,39.879,2.663a47.6,47.6,0,0,1,7.374,5.912,43.852,43.852,0,0,1,3.558,4.032,22.276,22.276,0,0,1,1.644,2.855,7.118,7.118,0,0,1,1.13,2.962c.182,2.348-2.382,2.228-4.069,2.651a53.732,53.732,0,0,1-8.29,1.386,76.614,76.614,0,0,1-16.975-.878,102.273,102.273,0,0,1-14.477-2.748,28.025,28.025,0,0,1-5.825-1.094,22.262,22.262,0,0,1-5.93-2.722,31.51,31.51,0,0,1-3.4-2.626,7.162,7.162,0,0,1-1.566-1.807,6.78,6.78,0,0,1-.745-2.594c-.335-2.733,1.276-3.171,3.191-4.682a43.754,43.754,0,0,1,4.5-3.31Z" transform="translate(-3005.394 -1894.443)"></path><path class="u" d="M3436.325,1987.253c12.466-8.673,22.776,1.87,30.055,14.415,3.728,6.425,9.75,11.24,11.567,19.523,1.318,6.006,6.39,20.726,6.39,20.726s-23.792,4.467-41.552,1.772c-14.087-2.137-29.667-9.127-29.563-9.605.949-4.412,7.147-13.488,8.681-17.711,2.107-5.8,5.007-12.229,6.547-17.459a24.6,24.6,0,0,1,7.875-11.661Z" transform="translate(-2985.875 -1836.203)"></path><path class="j" d="M3649,2116.773c-1.661-2.157-5.219-2.206-7.94-.11s-9.306,12.1-7.646,14.253,10.945-4.342,13.666-6.437,3.582-5.549,1.92-7.705Z" transform="translate(-3162.074 -1941.189)"></path><path class="j" d="M3531.452,2196.982c-.75,5.335-1.93,10.6-2.669,15.943-.462,3.338-1.563,19.786-3.182,22.06-3.823,5.371-22.49,3.007-24.859-2.284-1.486-3.319,1.965-17.656,2.4-22.006l28.306-13.713Z" transform="translate(-3055.698 -2006.772)"></path></g></g><g transform="translate(1708.652 1277.899)"><g class="v" transform="translate(0 0)"><path class="l" d="M3444.01,2044.166c1.246-4.286-.087-8.925,1.869-14.26,3.492-9.527,12.526-14.989,20.161-12.19s11,12.805,7.507,22.332a22.869,22.869,0,0,1-1.572,3.4c8.7,5.646,9.474,7.7,5.6,18.268-4.468,12.188-26.827,22.751-35.421,12.413-3.288-3.955-5.781-12.97-3.749-18.512,1.591-4.341,4.42-7.374,5.6-11.453Z" transform="translate(-3450.138 -2052.773)"></path></g></g><g transform="translate(1263.978 1087.688)"><g class="e" transform="translate(0)"><path class="j" d="M3478.213,2012.4c.774-4.724-.087-8.925,1.869-14.26,3.492-9.526,12.526-14.988,20.162-12.189,3.135,1.149,14.089,3.043,16.455,10.264,3.4,10.362-2.637,27.51-4.92,33.738-4.468,12.188-20.734,19.256-28.336,14.521-4.365-2.719-7.908-10.678-8.012-17.941-.067-4.623,2.007-9.4,2.782-14.131Z" transform="translate(-3035.715 -1837.115)"></path></g></g><g transform="translate(1703.693 1235.793)"><g class="w" transform="translate(0 0)"><path class="l" d="M3612.185,2157.97a9.376,9.376,0,1,1-10.862,7.606,9.381,9.381,0,0,1,10.862-7.606Z" transform="translate(-3576.175 -2123.506)"></path><path class="l" d="M3427.42,2110.056a9.377,9.377,0,1,1-10.862,7.606,9.382,9.382,0,0,1,10.862-7.606Z" transform="translate(-3428.148 -2085.119)"></path></g></g><g transform="translate(1263.978 1087.688)"><g class="e" transform="translate(0)"><path class="n" d="M3518.363,2122.528a2.055,2.055,0,1,1-2.656,1.181,2.057,2.057,0,0,1,2.656-1.181Z" transform="translate(-3067.874 -1947.012)"></path><path class="n" d="M3589.642,2134.185a2.055,2.055,0,1,1-2.656,1.181,2.056,2.056,0,0,1,2.656-1.181Z" transform="translate(-3124.98 -1956.351)"></path><path class="u" d="M3504.916,2088.9a1.167,1.167,0,0,1,1.227-1.1l6.367.495a1.168,1.168,0,0,1,1.041,1.281h0a1.168,1.168,0,0,1-1.227,1.1l-6.368-.5a1.168,1.168,0,0,1-1.041-1.28Z" transform="translate(-3059.334 -1919.292)"></path><path class="u" d="M3591.163,2102.329a1.168,1.168,0,0,1,1.483-.724l5.984,2.229a1.168,1.168,0,0,1,.649,1.518h0a1.168,1.168,0,0,1-1.483.724l-5.985-2.229a1.168,1.168,0,0,1-.648-1.518Z" transform="translate(-3128.373 -1930.304)"></path><path class="u" d="M3506.793,1983.6a6.5,6.5,0,0,1,2.207-.12h.038v0a6.316,6.316,0,0,1,1.14.252c.229.073,1.237.477,2.02.851,3.643.378,7.873.934,11,2.636,3.062,1.666,4.96,4.428,6.47,7.489a25.856,25.856,0,0,1,2.417,6.557,12.028,12.028,0,0,1,.039,4.815c-.8,3.6-3.819,6.138-7.525,5.16-7.079-1.87-13.684-9.261-13.338-16.8l-.04.107a55.41,55.41,0,0,0-1.917,6.8,30.386,30.386,0,0,1-.686,3.162c-.064.092-.387-.055-.471-.081-.265-.081-1.653-.346-1.665-.521a9.818,9.818,0,0,1,.121-1.346c.114-1.583.324-3.15.577-4.716.263-1.617.506-3.237.922-4.823q.134-.515.3-1.027a39.8,39.8,0,0,0-1.716,4.56l-1.306,7.248c-1.894-.412-15.468-2.28-15.889-2.744-.31-.343,2.071-5.876,2.363-6.486,3.045-6.333,8.275-10.262,14.944-10.981Z" transform="translate(-3046.954 -1835.688)"></path><path class="h" d="M3457.541,1942.667a10.59,10.59,0,0,1,4.433-3.616c2.57-1.062,5.682-1.119,8.414-1.125a31.506,31.506,0,0,1,10.539,1.5,32.743,32.743,0,0,1,7.316,3.883,50.055,50.055,0,0,1,4.774,3.63c6.085,5.25,6.8,7.491,4.941,14.973a17.32,17.32,0,0,0-.857,6.154c.148,1.257,1.942,4.614,3.313,7.6.452.984.835,1.978,1.12,2.777.353.989.556,1.678.556,1.678l-.439-.679a15.658,15.658,0,0,0-1.385-1.607,18.726,18.726,0,0,0-3.2-2.367c-1.837-1.166-4.712-3.038-7.816-4.627-7.162-3.665-25.841-9.468-38.958-7.292-.7.188-1.4.386-2.1.6a54.511,54.511,0,0,0-5.223,1.985c-.177.075-1.76.7-1.76.7s.242-.268.364-.368c.527-.432,2.088-1.647,2.749-2.156a41.167,41.167,0,0,0,5.957-5.358c.98-1.192,1.112-3.049,1.644-4.462,1.048-2.783,2.343-5.559,3.624-8.242a16.015,16.015,0,0,1,1.994-3.586Z" transform="translate(-3008.299 -1799.226)"></path><path class="x" d="M3106.441,2314.021c.31-1.294.614-2.587.883-3.878.221-1.058.3-3.4,1.12-4.224.934-.938,9.883-.392,11.331-.26,2.055.187,4.115.379,6.16.664.068.01,9.027,1.682,9.382,2.369.745,1.443.3,5.293.221,6.847-.06,1.173-.159,2.342-.261,3.511,12.462,9.251,45.3,5.439,50.142,27.044a49.977,49.977,0,0,1,.9,10.7c2.451,15.866-1.026,36.144-5.016,48.156-3.6,10.833-8.8,20.97-13.924,31.138-3.748,7.438-12.789,25.027-21.024,28.321-10.62,4.248-23.574-2.779-33.344-6.105-18.158-6.183-36.606-11.434-54.82-17.44-4.209-1.388-11-3.247-16.872-5.6-5.343,2.685-11.936,2.144-17.061,5.016-24.762,13.875-14.511-40-.224-74.642,5.985-14.51,17.9-32.479,24.943-39.939,2.75-2.913,6.072-5.325,9.088-7.955,3.732-3.254,6.647-6.285,11.729-7.214,11.626-2.124,25.363,7.44,36.645,3.489Z" transform="translate(-2662.245 -2093.617)"></path><path class="g" d="M3206,2377.247c.981-3.067,2.8-6.158,4.012-8.767.857-1.846,8.842-21.92,11.546-26.6.035-.061.1-.174.1-.174l5.816,1.426s-.027.165-.043.25c-.346,1.891-1.425,4.739-1.586,5.37-1.647,6.43-3.529,12.785-5.241,19.193a35.177,35.177,0,0,1,11.02,7.391c5.772,5.949,10.494,14.83,10.494,14.83a55.822,55.822,0,0,1,14.244-9.6c7.5-3.254,16.25-3.638,16.286-3.786,1.569-6.445,2.964-12.925,4.6-19.357.146-.576.508-3.136,1.027-4.966l.037-.129,6,1.578s0,.1,0,.147c-.047,6.232-2.49,26.307-2.618,28.269-.158,2.413-.1,5.332-.441,8.08-.024,3.806.948,32.25,11.074,44.742,29.055,35.845-12.4,77.133-16.6,75.671-16.723-5.827-61.192-33.993-78.128-39.188-2.847-.874-20.743-4.62-21.872-6.188-1.049-1.456,4.064-22.169,4.66-24.259,2.4-8.427,14.485-45.484,25.609-63.94Z" transform="translate(-2795.496 -2122.723)"></path><path class="y" d="M2180.7,1412.075s-4.071-7.9-6.756-10.68c-2.848-2.948-10.332-7.007-10.332-7.007H1945.886s-7.364,3.493-10.268,6.374c-2.83,2.808-7.157,10.916-7.157,10.916v425.27H2180.7V1412.075Z" transform="translate(-1796.338 -1363.762)"></path></g></g><g transform="translate(1396.101 1118.315)"><g class="z" transform="translate(0 0)"><path class="aa" d="M3106.441,2314.021c.31-1.294.614-2.587.883-3.878.221-1.058.3-3.4,1.12-4.224.934-.938,9.883-.392,11.331-.26,2.055.187,4.115.379,6.16.664.068.01,9.027,1.682,9.382,2.369.745,1.443.3,5.293.221,6.847-.06,1.173-.159,2.342-.261,3.511,12.462,9.251,45.3,5.439,50.142,27.044a49.977,49.977,0,0,1,.9,10.7c2.451,15.866-1.026,36.144-5.016,48.156-3.6,10.833-8.8,20.97-13.924,31.138-3.748,7.438-12.789,25.027-21.024,28.321-10.62,4.248-23.574-2.779-33.344-6.105-18.158-6.183-36.606-11.434-54.82-17.44-4.209-1.388-11-3.247-16.872-5.6-5.343,2.685-11.936,2.144-17.061,5.016-24.762,13.875-14.511-40-.224-74.642,5.985-14.51,17.9-32.479,24.943-39.939,2.75-2.913,6.072-5.325,9.088-7.955,3.732-3.254,6.647-6.285,11.729-7.214,11.626-2.124,25.363,7.44,36.645,3.489Z" transform="translate(-2794.367 -2124.243)"></path><path class="ab" d="M1746.922,2475.527q-1.377-3.267-2.748-6.538c-5.2-12.413-10.175-24.9-15.169-37.394-3.65-9.13-7.414-17.884-9.643-27.5-1.026-4.426-2.23-9.282-1.086-13.8a16.294,16.294,0,0,1,6.472-9.008c14.129-10.021,30.5-.161,39.948,11.381,12.146,14.836,17.759,33.163,21.812,51.532a394.309,394.309,0,0,1,7.61,44.236c.839,8.033,2.154,21.984-2.095,27.489s-17.247,8.628-23.4,5.541-10.192-15.921-13.516-24.065c-2.929-7.174-5.654-14.483-8.185-21.873Z" transform="translate(-1759.695 -2181.735)"></path><path class="ac" d="M1663.431,2303.713c14.2-2.716,29.472,2.852,40.408,12.09a84.034,84.034,0,0,1,16.951,18.943c5.2,8.235,12.307,22.43,12.307,22.43s-17.5,5.95-28.255,9.825c4.343,9.813,8.982,19.58,14.086,28.956,58.058,106.671,7.258,115.78-13.675,78.93-1.1-1.937-22.681-63.151-24.76-69.165-3.883-11.237,5.513-28.577.972-39.558-3.818-9.233-9.126-17.62-13.311-26.659-3.975-8.587-6.678-18.076-11.681-26.157,0,0,5.208-9.662,6.959-9.636Z" transform="translate(-1710.553 -2122.354)"></path></g></g><g transform="translate(1263.978 1087.688)"><g class="e" transform="translate(0)"><path class="ad" d="M2174.972,1413.57a22.908,22.908,0,0,0-22.908-22.908H1943.416a22.908,22.908,0,0,0-22.908,22.908v432.023a22.909,22.909,0,0,0,22.908,22.908h208.648a22.908,22.908,0,0,0,22.908-22.908V1413.57Zm-3.03,0v432.023a19.878,19.878,0,0,1-19.878,19.878H1943.416a19.878,19.878,0,0,1-19.878-19.878V1413.57a19.878,19.878,0,0,1,19.878-19.878h208.648a19.878,19.878,0,0,1,19.878,19.878Z" transform="translate(-1789.967 -1360.776)"></path><path class="n" d="M2642.95,3213.6s3.453,2.715,5.081,3.877c1.6,1.139,3.228,2.229,4.878,3.286.47.3.938.606,1.42.888.135.078.4.293.575.273.194-.023.374-.439.452-.573.427-.733.811-1.49,1.21-2.239,1.482-2.781,2.812-5.625,4.05-8.521l-17.667,3.009Z" transform="translate(-2368.762 -2818.839)"></path><path class="l" d="M2517.564,3257.128c.9-2.764,11.248-24.452,11.248-24.452s16.885,9.594,26.067,12.533c9.875,3.161,33.18,6.432,33.18,6.432s-26.417,40.306-37.046,55.505c-3.136,4.482-47.65,61.571-58.943,55.043-4.738-2.738-12.256-12.963-7.222-31.758,4.758-17.761,29.112-64.4,32.715-73.3Z" transform="translate(-2240.76 -2836.533)"></path><path class="l" d="M2298.453,3545.946c-6.1,10.561-19.554-2.273-15.929-11.5,6.475-16.486,24.317-45.465,33.894-60.343,12.723-19.767,25.9-43.475,47.387-55.055,5.729-3.088,15.918-7.578,22.616-5.556,4.908,1.481,7.84,6.8,8.923,11.47,2.3,9.888-1.672,21.433-6.116,30.238-3.913,7.753-10.555,13.052-16.889,18.775-7.589,6.857-15.179,13.705-22.885,20.433-15.9,13.884-40.426,33.221-51,51.54Z" transform="translate(-2079.513 -2980.99)"></path><path class="ad" d="M3031.033,1510.619a2.188,2.188,0,1,1-2.188,2.188,2.189,2.189,0,0,1,2.188-2.188Z" transform="translate(-2677.927 -1456.882)"></path><path class="ad" d="M3073.5,1510.619a2.188,2.188,0,1,1-2.188,2.188,2.189,2.189,0,0,1,2.188-2.188Z" transform="translate(-2711.952 -1456.882)"></path><path class="ad" d="M3115.97,1510.619a2.188,2.188,0,1,1-2.188,2.188,2.189,2.189,0,0,1,2.188-2.188Z" transform="translate(-2745.976 -1456.882)"></path><path class="ad" d="M2011.536,1473.108a9.647,9.647,0,1,1-9.647,9.647,9.651,9.651,0,0,1,9.647-9.647Z" transform="translate(-1855.166 -1426.829)"></path><path class="s" d="M2400.228,2874.244c.009,2.959,1.171,6.216,1.877,9.066,2,8.08,4.917,15.814,7.611,23.677a371.567,371.567,0,0,1,12.094,44.969c4.261,20.4,10.686,43.576,4.319,64.256-1.7,5.516-5.34,14.69-10.829,17.58-4.022,2.118-9.183.581-12.772-1.694-7.6-4.818-12.278-14.578-14.948-22.905-2.352-7.332-1.453-14.811-1.012-22.365.528-9.053,1.062-18.1,1.744-27.144,1.407-18.664,3.474-37.729,2.643-56.465-.425-9.589-2.147-19.252-3.951-28.674l13.224-.3Z" transform="translate(-2162.924 -2549.37)"></path><path class="ae" d="M1426.442,2589.869c.924-3.929-.207-8.061-1.6-11.735-5.762-15.237-22.842-18.33-37.1-13.717-19.7,6.373-22.391,21.811-35.911,34.358-7.347,6.819-17.209,9.771-23.382,18.021a33.16,33.16,0,0,0-6.165,17.68c-1.713,22.642,17.116,75.178,38.63,86.628,10.1,5.374,22.113,3.242,31.694-2.114a61.228,61.228,0,0,0,26.223-27.852c5.985-12.957,5.577-26.162,6.528-40.028l1.079-61.242Z" transform="translate(-1310.607 -2299.573)"></path><path class="af" d="M1450.7,2988.225a47.875,47.875,0,0,0,14.058-6.31c13.253-9.139,21.731-29.457,39.706-30.455,8.708-.484,19.785,3.286,26.847,8.33,1.222.873,2.4,1.8,3.531,2.779a129.912,129.912,0,0,1,19.9,16.706,145.575,145.575,0,0,1,15.346,18.907c.043-9.21-2.032-34.4.887-40.236,1.173-2.347,9.015-1.164,11.346-1.388,1.86-.178,3.851-.984,5.694-1,.416,0,.631.409.8.73,3.535,6.737,5.279,14.444,7.443,21.673,1.71,5.712,34.385,95.863,14.638,116.76-3.8,4.021-10.088,4.946-15.275,5.83-5.151.878-18.723,13.258-22.443,19.048-23.33,36.314-99.582,18.777-130.5,6.12-19.795-8.1-40.362-18.73-53.892-35.821-11.533-14.568-17.948-30.646-21.156-48.806-3.795-21.475-3.721-36.347,15.766-49.959,11.968-8.36,26.076-8.933,40.16-8.8,4.926.047,10.432.516,15.274-.695l11.868,6.584Z" transform="translate(-1345.461 -2611.199)"></path><path class="ae" d="M1501.607,2553.353c10.8-9.9-3.1-25.623-16.769-17.312a19.673,19.673,0,0,0-6.337,6.219c-3.174,5.012-5.447,15.019,1.548,18.032,6.447,2.778,14.2-.611,20.091-3.322l1.467-3.617Z" transform="translate(-1433.408 -2276.538)"></path><path class="j" d="M1648.443,2883.6c1.732,7.362,4.056,14.575,5.774,21.944,1.074,4.607,4.721,27.458,7.276,30.431,6.033,7.018,31.824,1.321,34.458-6.38,1.653-4.83-5.01-24.429-6.181-30.454l-41.327-15.541Z" transform="translate(-1571.998 -2556.867)"></path></g></g><g transform="translate(1340.423 1414.423)"><g class="ag" transform="translate(0 0)"><path class="l" d="M1707.2,2654.925c-2.291-5.831-1.022-12.487-4.44-19.7-6.1-12.87-19.431-19.347-29.746-14.456s-13.735,19.311-7.632,32.18a32.061,32.061,0,0,0,2.634,4.554c-11.442,9.009-12.257,11.979-5.488,26.255,7.807,16.465,40.418,28.365,51.107,12.812,4.089-5.949,6.418-18.872,2.868-26.357-2.781-5.865-7.123-9.743-9.3-15.292Z" transform="translate(-1656.287 -2671.726)"></path></g></g><g transform="translate(1263.978 1087.688)"><g class="e" transform="translate(0)"><path class="ah" d="M1786.1,2647.621c-5.464,2.328-6.227,12.836-1.7,23.451s12.631,17.342,18.094,15.014,6.227-12.836,1.7-23.451-12.631-17.342-18.094-15.014Zm.481,1.13c-5.143,2.191-5.861,12.082-1.6,22.073s11.889,16.324,17.031,14.133,5.861-12.082,1.6-22.073-11.889-16.323-17.032-14.132Z" transform="translate(-1678.553 -2367.438)"></path><path class="j" d="M1675.334,2613.071c-2.291-5.831-1.022-12.487-4.44-19.7-6.1-12.87-19.431-19.347-29.746-14.456s-13.735,19.311-7.632,32.18a32.135,32.135,0,0,0,2.634,4.555c-11.442,9.008-12.256,11.979-5.487,26.254,7.807,16.465,40.418,28.365,51.107,12.813,4.089-5.95,6.418-18.873,2.868-26.358-2.781-5.865-7.124-9.742-9.3-15.292Z" transform="translate(-1554.314 -2311.46)"></path><path class="n" d="M1828.916,2736.958a2.885,2.885,0,1,0,3.542,2.025,2.886,2.886,0,0,0-3.542-2.025Z" transform="translate(-1714.882 -2439.3)"></path><path class="l" d="M1725.579,2766.346a13.163,13.163,0,1,0,16.159,9.241,13.169,13.169,0,0,0-16.159-9.241Z" transform="translate(-1626.021 -2462.553)"></path><path class="ah" d="M1767.13,2652.787c-5.464,2.328-6.227,12.836-1.7,23.451s12.631,17.343,18.095,15.015,6.227-12.836,1.7-23.451-12.631-17.343-18.095-15.015Zm.481,1.13c-5.142,2.191-5.861,12.082-1.6,22.073s11.889,16.323,17.032,14.132,5.861-12.082,1.6-22.073-11.889-16.324-17.032-14.132Z" transform="translate(-1663.356 -2371.578)"></path><path class="ah" d="M1693.323,2754.565l-19.955,2.24.111.99,19.955-2.24-.111-.99Z" transform="translate(-1591.966 -2453.488)"></path><path class="ae" d="M1589.476,2658.172c5.768-5.767,6.777-40.855,10.452-48.1,3.995-7.88,7.744-15.843,10.176-24.354.455-1.593,2.44-7.323,1.7-8.932-.263-.573-4.417-.335-5.1-.335-5.42,0-10.834,1.4-15.95,3.07-4.087,1.335-9.374,3.706-11.733,7.516-3.042,4.915-1.271,18.769,0,23.889l10.46,47.25Z" transform="translate(-1515.028 -2310.747)"></path><path class="j" d="M1612.128,2752.477c3.079-2.264,7.9-.948,10.753,2.936s7.853,19.934,4.774,22.2-13.076-10.11-15.932-13.994-2.675-8.876.4-11.139Z" transform="translate(-1540.954 -2450.927)"></path><path class="ae" d="M1785.689,2686.788a1.64,1.64,0,0,0-2.224-.651l-7.754,4.5a1.639,1.639,0,0,0-.538,2.254h0a1.64,1.64,0,0,0,2.224.651l7.754-4.5a1.639,1.639,0,0,0,.538-2.254Z" transform="translate(-1673.341 -2398.5)"></path><path class="j" d="M2284.416,2742.8c1.11,4.133,5.071,7.057,8.479,9.248.81.52,1.756.916,2.525,1.487.259.192,1.539,8.87,2.6,9.291a17.311,17.311,0,0,0,9.012,1.329,9.333,9.333,0,0,0,5.912-3.591c.388-.622-1.253-10.73-1.858-13.465a37.686,37.686,0,0,1-1.1-5.487c-.216-3.127,1.166-6.105,1.429-9.171.176-2.04-1.047-3.72-1.472-5.649a13.229,13.229,0,0,1-.32-2.315c-.046-1.2.388-2.744-.389-3.8a5.522,5.522,0,0,0-2.032-1.466,11.6,11.6,0,0,0-1.934-.745,22.444,22.444,0,0,0-2.738-.624l-18.112,24.955Zm-7.969-17.817a2,2,0,0,1-.446-.566,2.374,2.374,0,0,1-.224-1.74,4.712,4.712,0,0,1,.568-1.079,5.511,5.511,0,0,1,1.133-1.42,4.194,4.194,0,0,1,1.484-.686,9.638,9.638,0,0,1,1.352-.342l-1.029,7.674-.089-.038c-.019.052-.04.1-.062.156-.009.022-.021.07-.047.08-.063.027-.2-.073-.249-.1-.21-.118-.418-.243-.618-.376l-.747,5.8-.339-.032c-.021.146-.052.29-.079.422-.133.656-.305,1.3-.5,1.945-.06.2-.127.407-.205.605l.17,1.243a4.479,4.479,0,0,1-1-.316,3.169,3.169,0,0,1-1.417-1.572,2.578,2.578,0,0,1,1.179-3.131,2.454,2.454,0,0,1-.629-.9,2.952,2.952,0,0,1,.184-1.972,4.944,4.944,0,0,1,.847-1.618,3.074,3.074,0,0,1,1.857-.992c-.129-.111-.256-.225-.382-.338a7.593,7.593,0,0,1-.72-.708Zm5.876-12.636c-.6-.155-4.89-3.9-5.4-4.231a28.439,28.439,0,0,0-2.555-1.553,3.4,3.4,0,0,0-2.078-.47,2.5,2.5,0,0,0-1.358,2.44,4.439,4.439,0,0,0,.887,1.459,30.818,30.818,0,0,0,2.461,2.671c1.289,1.325,5.253,4.809,6.229,5.925l1.817-6.24Z" transform="translate(-2070.688 -2414.621)"></path></g></g><g transform="translate(1464.19 1379.12)"><g class="ai" transform="translate(0 0)"><path class="aj" d="M2290.164,2814.123a5.821,5.821,0,0,0,1.7,1c.535.246,1.055.521,1.595.755.34.147.682.287,1.021.436.057.025.292.076.32.134.015.029-.1.049-.109.052a3.005,3.005,0,0,1-.338.067,3.464,3.464,0,0,1-1.444-.263,6.711,6.711,0,0,1-2.018-.8,4.63,4.63,0,0,1-1.165-1.362l.439-.016Zm3.438-4.441a3.985,3.985,0,0,1,.651.4,5.935,5.935,0,0,0,1.564.815,4.149,4.149,0,0,0,1.094.052c.092,0,.184,0,.275.007.018,0,.092-.006.1.015s-.053.057-.064.066a2.208,2.208,0,0,0-.222.227,1.122,1.122,0,0,1-.614.3,2.867,2.867,0,0,1-.932.073,2.469,2.469,0,0,1-1.83-1.356,4.862,4.862,0,0,1-.286-.811l.26.213Z" transform="translate(-2285.982 -2788.906)"></path></g></g><g transform="translate(1263.978 1087.688)"><g class="e" transform="translate(0)"><path class="s" d="M2313.454,2794.861a2.453,2.453,0,0,1,.539.445c.167.154.333.312.485.48a.584.584,0,0,1,.16.223c.007.035-.021.077-.037.106-.039.073-.079.146-.116.22-.14.277-.239.572-.361.857-.129.3-.291.585-.446.876-.036.068-.112.243-.213.231a1.773,1.773,0,0,1-.641-.333c-.507-.321-1.091-.639-1.268-1.254a1.757,1.757,0,0,1,.172-1.4,1.452,1.452,0,0,1,1.137-.538l.588.086Z" transform="translate(-2103.204 -2485.702)"></path><path class="s" d="M2313.8,2823.123a2.308,2.308,0,0,1,.505.417c.157.145.312.293.455.451a.552.552,0,0,1,.15.209c.006.034-.02.072-.035.1-.036.069-.074.137-.109.206-.131.26-.224.538-.339.805-.122.286-.273.55-.419.823-.034.064-.1.229-.2.218a1.671,1.671,0,0,1-.6-.312c-.476-.3-1.024-.6-1.191-1.177a1.649,1.649,0,0,1,.162-1.315,1.361,1.361,0,0,1,1.068-.506l.552.081Z" transform="translate(-2103.574 -2508.349)"></path><path class="s" d="M2296.611,2840.55a1.986,1.986,0,0,1,.438.362c.136.126.271.253.4.391a.483.483,0,0,1,.13.181c.006.029-.018.063-.031.086-.031.06-.063.119-.094.179-.114.226-.195.465-.294.7s-.236.477-.362.712c-.03.056-.091.2-.173.189a1.446,1.446,0,0,1-.521-.271c-.412-.261-.887-.519-1.031-1.02a1.428,1.428,0,0,1,.14-1.139,1.18,1.18,0,0,1,.925-.438l.478.07Z" transform="translate(-2090.005 -2522.319)"></path><path class="p" d="M2329.994,2653.894a3.791,3.791,0,0,0-.425-2.692,3.149,3.149,0,0,0-2.062-1.506l-19.5-4.045a3.152,3.152,0,0,0-2.491.562,3.788,3.788,0,0,0-1.46,2.3c-1.915,9.227-7.051,33.987-8.965,43.213a3.791,3.791,0,0,0,.425,2.692,3.148,3.148,0,0,0,2.062,1.506l19.5,4.045a3.151,3.151,0,0,0,2.491-.562,3.79,3.79,0,0,0,1.461-2.3c1.914-9.226,7.05-33.986,8.965-43.212Z" transform="translate(-2090.005 -2366.179)"></path><path class="y" d="M2333.889,2662.748a1.209,1.209,0,0,0-.859-1.473l-21.118-4.381a1.209,1.209,0,0,0-1.375,1.01l-9,43.386a1.209,1.209,0,0,0,.86,1.473l21.117,4.381a1.21,1.21,0,0,0,1.375-1.01c1.354-6.531,7.645-36.855,9-43.386Z" transform="translate(-2095.21 -2375.219)"></path><path class="p" d="M2388.024,2656.066l-13.372-2.773h0a3.139,3.139,0,0,0,2.436,3.711l7.224,1.5a3.139,3.139,0,0,0,3.711-2.437Z" transform="translate(-2153.759 -2372.351)"></path><path class="o" d="M2659.118,3048.9c-37.236,27.862-142.489,23.279-142.489,23.279s19.529-27.108,37.083-56.756c11.957-20.194,23-41.567,26.326-56.352.1-.445.164-.7.164-.7l-38.463-11.236s11.455-16.841,22.4-34.016c9.19-14.417,16.982-29.2,27.51-33.182,21.058-7.969,43.077,10.837,65.363,16.811,22.077,5.918,18.6,7.093,30.808,5.574,17.169-2.138,46.985-7.431,67.06,17.81,11.592,14.575-24.272,72.784-47.772,92.248-15.46,12.8-31.928,24.5-47.993,36.524Z" transform="translate(-2267.558 -2552.377)"></path><path class="j" d="M2956.738,3379.052c1.985-2.125,20.52-17.417,20.52-17.417s11.255,15.825,18.339,22.367c7.617,7.034,27.363,19.839,27.363,19.839s-40.963,25.385-57.016,34.675c-8.6,4.976-17.247,10.088-26.137,14.524-3.715,1.854-7.619,4.248-11.726,5.369a7.014,7.014,0,0,1-3.2,1.245c-2.13.094-4.167-7.054-4.716-8.382-2.457-5.942-7.815-13.779-7.7-20.785l-.989-2a36.439,36.439,0,0,1,2.821-4.054c5.838-9.192,14.521-17.39,21.994-25.211q9.875-10.336,20.445-20.171Z" transform="translate(-2583.896 -2939.851)"></path><path class="j" d="M2744.83,3035.751c-1.042-12.15-18.673-6.235-19.3,3.66-1.128,17.676,2.739,51.487,5.1,69.021,3.139,23.3,5.019,50.357,19.563,69.956,3.879,5.227,11.2,13.614,18.125,14.624,5.073.74,9.984-2.834,12.946-6.6,6.273-7.981,7.576-20.118,7.286-29.978-.256-8.681-4.023-16.3-7.332-24.165-3.965-9.429-7.934-18.85-12.059-28.21-8.512-19.319-22.52-47.231-24.327-68.306Z" transform="translate(-2434.757 -2673.308)"></path><path class="ak" d="M3234.734,2467.376c-.983-4.179.22-8.575,1.7-12.483,6.129-16.208,24.3-19.5,39.462-14.591,20.952,6.779,28.694,26.895,28.727,38.1.017,5.531-1.521,13-5.53,17.712-4.3,5.055-7.008,7.844-20.293,12.62-19.941,7.169-44.064-41.354-44.064-41.354Z" transform="translate(-2842.592 -2200.037)"></path><path class="j" d="M3242.154,2779.818c-1.843,7.831-4.315,15.5-6.142,23.341-1.143,4.9-5.022,29.208-7.74,32.369-6.417,7.465-33.851,1.405-36.653-6.786-1.758-5.137,5.33-25.984,6.576-32.393l43.959-16.531Z" transform="translate(-2808.113 -2473.72)"></path></g></g><g transform="translate(1647.206 1393.787)"><g class="al" transform="translate(0 0)"><path class="l" d="M3127.193,2536.576c2.437-6.2,1.087-13.282,4.723-20.95,6.491-13.689,20.669-20.579,31.64-15.377s14.61,20.541,8.118,34.229a34.088,34.088,0,0,1-2.8,4.845c12.171,9.582,13.037,12.742,5.837,27.927-8.3,17.514-42.992,30.173-54.362,13.629-4.35-6.329-6.827-20.075-3.051-28.037,2.958-6.239,7.577-10.363,9.9-16.267Z" transform="translate(-3130.533 -2554.447)"></path></g></g><g transform="translate(1263.978 1087.688)"><g class="e" transform="translate(0)"><path class="j" d="M3161.086,2492.055c2.437-6.2,1.087-13.282,4.722-20.949,6.492-13.689,20.669-20.579,31.641-15.377s14.609,20.54,8.118,34.229a34.114,34.114,0,0,1-2.8,4.845c12.171,9.582,13.037,12.742,5.837,27.927-8.3,17.514-42.992,30.172-54.362,13.629-4.35-6.329-6.826-20.075-3.051-28.037,2.958-6.239,7.577-10.363,9.9-16.267Z" transform="translate(-2774.459 -2212.68)"></path><path class="n" d="M3230.189,2623.834a3.069,3.069,0,1,1-3.768,2.154,3.071,3.071,0,0,1,3.768-2.154Z" transform="translate(-2836.132 -2348.663)"></path><path class="l" d="M3251.992,2655.094a14,14,0,1,1-17.188,9.829,14.008,14.008,0,0,1,17.188-9.829Z" transform="translate(-2842.538 -2373.398)"></path><path class="ak" d="M3372.313,2489.77s-10.04,29.7-11.3,30.4c-8.249,4.582-9.251-27.981-10.94-31.312-4.249-8.383-8.237-16.852-10.824-25.906-.484-1.695-2.6-7.79-1.808-9.5.28-.609,4.7-.356,5.43-.356,5.765,0,11.524,1.486,16.966,3.265,4.347,1.421,9.971,3.942,12.481,8,3.236,5.228,1.352,19.964,0,25.411Z" transform="translate(-2925.02 -2211.922)"></path><path class="ak" d="M3262.486,2432.712a26.9,26.9,0,0,1-12.067.682c-5.564-.984-11.214-3.5-14.283-8.469-.809-1.31-2.448-4.094-1.442-5.7.855-1.36,2.911.047,3.526-.522.91-.841-.034-2.946,1.749-3.318.827-.173,3.693,1.856,4.5,2.225a31.275,31.275,0,0,0,8,2.364c4.363.713,9.6-.043,12.624,3.785l-2.608,8.948Z" transform="translate(-2842.592 -2181.743)"></path><path class="j" d="M3404.394,2640.34c-3.274-2.408-8.4-1.008-11.438,3.124s-8.354,21.2-5.078,23.611,13.909-10.754,16.946-14.886,2.845-9.441-.43-11.849Z" transform="translate(-2964.746 -2361.031)"></path><path class="ak" d="M3253.8,2570.468a1.744,1.744,0,0,1,2.365-.692l8.248,4.787a1.744,1.744,0,0,1,.572,2.4h0a1.744,1.744,0,0,1-2.365.692l-8.248-4.788a1.744,1.744,0,0,1-.572-2.4Z" transform="translate(-2857.952 -2305.265)"></path><path class="ak" d="M3198.905,2623.306s-.085,11.087-7.593,12.428a97.021,97.021,0,0,1-13.467,1.294c-15,.536-20.861-3.826-20.861-3.826a65.658,65.658,0,0,0-6.3,9.46,22.128,22.128,0,0,0-2.1,7.055,48.653,48.653,0,0,0,.315,11.213,39.136,39.136,0,0,0,4.833,12.386c3.717,5.938,7.32,7.463,14.265,7.609,4.4.093,12.935-4.038,17.031-9.618,8.4-11.449,16.8-41.354,16.8-41.354l-2.927-6.648Z" transform="translate(-2773.716 -2348.327)"></path><path class="j" d="M2758.692,2861.02c-1.037,4.9-5.485,8.574-9.333,11.352-.914.66-2,1.183-2.859,1.9-.29.241-1.239,10.471-2.452,11.031a20.279,20.279,0,0,1-10.457,2.124,10.935,10.935,0,0,1-7.142-3.827c-.493-.7.788-12.63,1.323-15.866a44.186,44.186,0,0,0,.94-6.487c.055-3.672-1.749-7.067-2.251-10.637-.334-2.375.99-4.417,1.365-6.7a15.416,15.416,0,0,0,.228-2.728c-.021-1.4-.627-3.185.215-4.466a6.473,6.473,0,0,1,2.285-1.843,13.516,13.516,0,0,1,2.214-.993,26.162,26.162,0,0,1,3.163-.9l22.761,28.045Zm8.2-21.344a2.351,2.351,0,0,0,.486-.69,2.782,2.782,0,0,0,.151-2.048,5.512,5.512,0,0,0-.732-1.227,6.453,6.453,0,0,0-1.415-1.59,4.9,4.9,0,0,0-1.779-.708,11.216,11.216,0,0,0-1.6-.314l1.688,8.911.1-.051c.025.061.053.12.082.178.012.025.03.081.06.092.075.027.23-.1.285-.132.238-.152.473-.311.7-.48l1.24,6.736c.132-.021.263-.039.394-.059.033.169.079.335.119.488.2.759.439,1.505.7,2.243.083.233.174.468.278.7l-.12,1.464a5.209,5.209,0,0,0,1.148-.432,3.713,3.713,0,0,0,1.558-1.927,3.02,3.02,0,0,0-1.578-3.588,2.865,2.865,0,0,0,.678-1.091,3.452,3.452,0,0,0-.34-2.294,5.791,5.791,0,0,0-1.093-1.84,3.6,3.6,0,0,0-2.236-1.042c.144-.138.285-.279.426-.42a8.935,8.935,0,0,0,.8-.873Z" transform="translate(-2435.569 -2516.307)"></path></g></g><g transform="translate(1554.747 1404.357)"><g class="am" transform="translate(0 0)"><path class="aj" d="M2905.913,2882.119a6.808,6.808,0,0,1-1.923,1.277c-.61.321-1.2.676-1.817.983-.388.193-.78.38-1.167.575-.066.033-.338.108-.366.177-.014.035.116.051.131.054a3.6,3.6,0,0,0,.4.056,4.061,4.061,0,0,0,1.672-.4,7.852,7.852,0,0,0,2.31-1.065,5.417,5.417,0,0,0,1.276-1.667l-.514.009Zm-4.3-4.978a4.668,4.668,0,0,0-.736.508,6.953,6.953,0,0,1-1.778,1.052,4.852,4.852,0,0,1-1.276.131q-.161.009-.322.026c-.02,0-.108,0-.119.024s.066.063.079.073a2.469,2.469,0,0,1,.274.251,1.315,1.315,0,0,0,.737.313,3.357,3.357,0,0,0,1.1.026,2.892,2.892,0,0,0,2.053-1.7,5.69,5.69,0,0,0,.284-.967l-.291.265Z" transform="translate(-2863.371 -2868.147)"></path></g></g><g transform="translate(1263.978 1087.688)"><g class="e" transform="translate(0)"><path class="s" d="M2895.916,2861.777a2.882,2.882,0,0,0-.6.554c-.186.191-.37.385-.537.593a.689.689,0,0,0-.173.271c-.005.042.03.088.05.122.049.084.1.165.149.249.181.316.316.655.476.981.171.347.378.666.577,1,.047.077.146.277.263.257a2.081,2.081,0,0,0,.729-.429c.572-.408,1.236-.816,1.4-1.547a2.058,2.058,0,0,0-.29-1.628,1.7,1.7,0,0,0-1.364-.557l-.682.138Z" transform="translate(-2570.377 -2539.27)"></path><path class="s" d="M2898.191,2894.833a2.713,2.713,0,0,0-.565.52c-.174.18-.346.362-.5.556a.642.642,0,0,0-.163.254c-.005.04.028.083.047.114.047.079.1.156.14.234.17.3.3.615.447.921.16.326.354.626.542.936.044.073.137.261.247.241a1.953,1.953,0,0,0,.685-.4c.537-.383,1.16-.766,1.318-1.452a1.93,1.93,0,0,0-.272-1.528,1.594,1.594,0,0,0-1.281-.524l-.64.13Z" transform="translate(-2572.264 -2565.76)"></path><path class="s" d="M2921.217,2914.089a2.365,2.365,0,0,0-.49.45c-.151.156-.3.313-.437.482a.569.569,0,0,0-.141.22c0,.034.025.072.041.1.04.068.082.135.121.2.147.257.257.532.387.8.139.282.307.542.469.81.038.063.119.226.214.209a1.7,1.7,0,0,0,.592-.349c.465-.332,1.005-.664,1.142-1.258a1.672,1.672,0,0,0-.235-1.323,1.382,1.382,0,0,0-1.11-.453l-.555.112Z" transform="translate(-2590.844 -2581.201)"></path><path class="p" d="M2752.441,2685.007a4.662,4.662,0,0,0-1.831-2.809,3.873,3.873,0,0,0-3.073-.654l-23.928,5.26a3.872,3.872,0,0,0-2.515,1.883,4.661,4.661,0,0,0-.484,3.317l11.658,53.034a4.664,4.664,0,0,0,1.831,2.809,3.874,3.874,0,0,0,3.073.655l23.928-5.26a3.874,3.874,0,0,0,2.515-1.883,4.661,4.661,0,0,0,.484-3.318l-11.658-53.034Z" transform="translate(-2430.89 -2394.916)"></path><path class="y" d="M2757.647,2696.525a1.488,1.488,0,0,0-1.706-1.222l-25.917,5.7a1.488,1.488,0,0,0-1.036,1.825l11.7,53.246a1.488,1.488,0,0,0,1.706,1.222l25.917-5.7a1.488,1.488,0,0,0,1.036-1.825l-11.7-53.247Z" transform="translate(-2437.66 -2405.985)"></path><path class="p" d="M2772.594,2691.192l-16.411,3.607h0a3.863,3.863,0,0,0,4.6,2.943l8.865-1.949a3.863,3.863,0,0,0,2.943-4.6Z" transform="translate(-2459.479 -2402.715)"></path><path class="j" d="M2292.87,2755.7a6.933,6.933,0,0,1-.7-.807l2.715-4.994c.3.276.558.6.83.9a16.83,16.83,0,0,1,1.744,2.2,5.032,5.032,0,0,1,.891,2.01,2.679,2.679,0,0,1-1.97,2.792c.227.131.448.272.664.421.829.57,1.842,1.5,1.719,2.624a2.206,2.206,0,0,1-.286.825,3.277,3.277,0,0,1-.552.725,4.6,4.6,0,0,1-.93.731,2.763,2.763,0,0,1-2.3.065q-.252-.078-.5-.166a1.511,1.511,0,0,1,.13,1.226,2.6,2.6,0,0,1-.475.785,2.953,2.953,0,0,1-1.335.978,2.092,2.092,0,0,1-1.873-.329,2.611,2.611,0,0,1-.68-1.06,3.025,3.025,0,0,1-.187-1.517l2.158-1.057c-.2-.1-.4-.206-.59-.318a.918.918,0,0,1-.427-.374,1.239,1.239,0,0,1-.044-.64,6.535,6.535,0,0,1,.442-1.483c.4-1.054,1.082-2.515,1.559-3.537Zm27.407,4.072c-.675-.8-1.49-4.4-1.677-5.393a10.063,10.063,0,0,1,.2-5.674,17.983,17.983,0,0,1,1.524-2.609c.17-.275.34-.551.522-.819a7.512,7.512,0,0,1,.521-.682c.732-.847,1.741-1.7,2.922-1.442a1.37,1.37,0,0,1,.615.254c1.1.915.314,2.292-.038,3.351a8.376,8.376,0,0,0-.322,1.248c-.283,1.692.215,3.425.318,5.115.081,1.334-.231,2.7-.079,4.024l-4.507,2.625Z" transform="translate(-2085.792 -2444.305)"></path></g></g><g transform="translate(1467.938 1386.487)"><g class="an" transform="translate(0 0)"><path class="aj" d="M2290.9,2814.648a5.826,5.826,0,0,0,1.7,1c.534.246,1.054.521,1.594.754.34.147.682.288,1.021.436.058.025.293.076.321.134.014.029-.1.048-.109.052a2.983,2.983,0,0,1-.338.066,3.469,3.469,0,0,1-1.444-.263,6.7,6.7,0,0,1-2.018-.8,4.64,4.64,0,0,1-1.164-1.362l.439-.016Zm3.438-4.442a4.029,4.029,0,0,1,.651.4,5.921,5.921,0,0,0,1.564.815,4.142,4.142,0,0,0,1.094.053c.092,0,.184,0,.275.007.018,0,.092-.006.1.016s-.053.056-.064.066a2.08,2.08,0,0,0-.221.226,1.122,1.122,0,0,1-.614.3,2.872,2.872,0,0,1-.933.073,2.469,2.469,0,0,1-1.829-1.356,4.841,4.841,0,0,1-.286-.811l.26.212Z" transform="translate(-2290.319 -2796.694)"></path></g></g><g transform="translate(1263.978 1087.688)"><g class="e" transform="translate(0)"><path class="j" d="M2766.734,2822.15a1.928,1.928,0,0,1,.4-1.439l-2.805-6.4c-.331.342-1.3,1.466-1.6,1.834a19.691,19.691,0,0,0-1.9,2.68,5.9,5.9,0,0,0-.916,2.407,3.139,3.139,0,0,0,2.481,3.141c-.257.167-.506.347-.749.534-.933.719-2.06,1.876-1.845,3.178a2.573,2.573,0,0,0,.387.947,3.841,3.841,0,0,0,.692.813,5.364,5.364,0,0,0,1.134.8,3.234,3.234,0,0,0,2.7-.069q.289-.108.573-.226a1.772,1.772,0,0,0-.075,1.443,3.057,3.057,0,0,0,.605.888,3.454,3.454,0,0,0,1.624,1.059,2.446,2.446,0,0,0,2.169-.5,3.062,3.062,0,0,0,.728-1.282,3.548,3.548,0,0,0,.123-1.787l-2.592-1.1c.227-.13.451-.266.67-.409a1.074,1.074,0,0,0,.476-.464,1.451,1.451,0,0,0,.01-.751,7.645,7.645,0,0,0-.61-1.707c-.531-1.208-1.058-2.423-1.68-3.588Zm-32.639,9.132c.74-.977,1.939-8.332,2.1-9.5a11.793,11.793,0,0,0-.593-6.624,21.077,21.077,0,0,0-1.947-2.955c-.216-.312-.433-.623-.663-.925a8.723,8.723,0,0,0-.653-.765c-.91-.945-2.143-1.878-3.509-1.5a1.612,1.612,0,0,0-.7.336c-1.228,1.139-.223,2.7.257,3.918a9.761,9.761,0,0,1,.455,1.439c.439,1.961-.035,4.019-.048,6-.01,1.566.441,3.145.347,4.7l4.963,5.874Z" transform="translate(-2436.528 -2497.039)"></path></g></g><g transform="translate(1554.985 1399.575)"><g class="ao" transform="translate(0 0)"><path class="aj" d="M2905.088,2882.781a6.838,6.838,0,0,1-1.924,1.278c-.61.321-1.2.676-1.818.982-.388.194-.779.38-1.167.575-.065.033-.338.108-.366.177-.014.035.115.051.131.054a3.451,3.451,0,0,0,.4.056,4.065,4.065,0,0,0,1.672-.4,7.853,7.853,0,0,0,2.31-1.066,5.442,5.442,0,0,0,1.276-1.666l-.514.009Zm-4.3-4.978a4.639,4.639,0,0,0-.737.508,6.947,6.947,0,0,1-1.778,1.051,4.851,4.851,0,0,1-1.276.131c-.107.006-.214.015-.322.025-.021,0-.108,0-.119.025s.066.063.079.073a2.485,2.485,0,0,1,.274.251,1.314,1.314,0,0,0,.737.313,3.365,3.365,0,0,0,1.095.026,2.89,2.89,0,0,0,2.054-1.7,5.665,5.665,0,0,0,.284-.967l-.291.265Z" transform="translate(-2862.947 -2863.895)"></path></g></g><g transform="translate(1263.978 1087.688)"><g class="e" transform="translate(0)"><path class="p" d="M3271.061,2146.221a3.266,3.266,0,0,0-.08-2.348,2.713,2.713,0,0,0-1.605-1.506l-16.257-5.516a2.712,2.712,0,0,0-2.19.218,3.267,3.267,0,0,0-1.492,1.814c-2.61,7.693-9.616,28.338-12.226,36.031a3.264,3.264,0,0,0,.08,2.348,2.715,2.715,0,0,0,1.606,1.506l16.256,5.516a2.716,2.716,0,0,0,2.191-.218,3.265,3.265,0,0,0,1.492-1.814l12.227-36.031Z" transform="translate(-2844.718 -1958.486)"></path><path class="q" d="M3374.849,2175.773a1.573,1.573,0,0,0-.167-1.319,2.184,2.184,0,0,0-1.173-.921l-.059-.02a2.177,2.177,0,0,0-1.491.017,1.574,1.574,0,0,0-.936.945c-.493,1.452-1.215,3.581-1.708,5.032a1.576,1.576,0,0,0,.168,1.32,2.18,2.18,0,0,0,1.173.921l.059.02a2.18,2.18,0,0,0,1.491-.017,1.573,1.573,0,0,0,.936-.945l1.708-5.033Z" transform="translate(-2950.638 -1987.87)"></path><path class="r" d="M3320.35,2221.333a2.724,2.724,0,1,1-3.455,1.7,2.726,2.726,0,0,1,3.455-1.7Z" transform="translate(-2908.586 -2026.165)"></path><path class="s" d="M3228.573,2237.777c1.231-.238,2.474-.424,3.694-.613,4.149-.644,8.318-1.085,12.505-1.381,1.723-.122,3.445-.228,5.172-.293a5.771,5.771,0,0,1,2.406.139c.973.457.027,2.1-.391,2.622-1.356,1.694-4.283,1.907-6.22,2.4-1.746.445-3.5.873-5.245,1.3q-.994.245-1.984.5c1.044.106,2.082.245,3.11.426,1.471.257,3.591.63,4.671,1.8,1.243,1.342-.734,3.034-1.907,3.5q-.142.056-.287.1a3.915,3.915,0,0,1,1.034.6c1.346,1.127-.6,3.6-1.65,4.241a2.836,2.836,0,0,1-.4.2c.918.776.2,2.438-.609,3.056a4.215,4.215,0,0,1-2.273.576,5.534,5.534,0,0,0-2.243.553c-.758.249-.569,5.068-3.591,5.516-2.619.389-11.568-1.163-13.712-2.723-1.8-1.313,1.066-4.418.851-6.639-.287-2.956-1.7-9.693-2.57-11.1-1.724-2.789.069-8.825-.849-11.937a9.051,9.051,0,0,1-.26-1.131c-.156-.984-.123-4.429,2.4-3.617,1.573.506,1.972,3.3,2.691,4.418a35.556,35.556,0,0,0,5.661,7.477Z" transform="translate(-2829.284 -2029.828)"></path><path class="ap" d="M3377.733,2275.758c.231-.035.469-.006.7-.049a11.119,11.119,0,0,0,1.284-.373,6.485,6.485,0,0,0,1.235-.535,1.881,1.881,0,0,0,.9-.817.975.975,0,0,0-.888-1.275,6.032,6.032,0,0,0-1.769.257,6.321,6.321,0,0,0-2.154.738,1.116,1.116,0,0,0-.488.626,1.214,1.214,0,0,0,.665,1.332l.516.1Z" transform="translate(-2956.471 -2067.436)"></path><path class="ap" d="M3221.785,2221.035c-.019-.234.047-.467.019-.7a9.122,9.122,0,0,0-.335-1.323,5.688,5.688,0,0,0-.55-1.294,2.119,2.119,0,0,0-.956-.992,1.3,1.3,0,0,0-1.759.725,4.69,4.69,0,0,0,.127,1.79,5.282,5.282,0,0,0,.706,2.232,1.427,1.427,0,0,0,.756.563,1.787,1.787,0,0,0,1.806-.5l.185-.5Z" transform="translate(-2829.597 -2022.497)"></path><path class="y" d="M1621.015,2840c5.11.927,9.057,6.877,9.057,14.069,0,7.834-4.683,14.195-10.452,14.195s-10.452-6.36-10.452-14.195c0-6.369,3.1-11.764,7.353-13.559v.792c-3.947,1.768-6.8,6.819-6.8,12.767,0,7.418,4.434,13.44,9.9,13.44s9.9-6.022,9.9-13.44c0-6.775-3.7-12.385-8.5-13.307V2840Z" transform="translate(-1540.532 -2521.932)"></path><path class="y" d="M3376.186,2689.308a3.33,3.33,0,0,0,.806.279,2.81,2.81,0,0,0,3.267-2.228,2.546,2.546,0,0,0-.123-1.958,2.49,2.49,0,0,0-3.311-.874,2.186,2.186,0,0,0-.746,1.794l0,.112-7.213,6.51s-.411.322.287,1.151c.606.721,1.189.484,1.189.484l5.841-5.272Z" transform="translate(-2950.246 -2397.108)"></path><path class="y" d="M2306.487,1681.806H2138.851v167.636h167.636V1681.806Z" transform="translate(-1964.895 -1594.031)"></path></g></g><g transform="translate(1437.934 1175.464)"><g class="aq" transform="translate(0 0)"><path class="q" d="M2174.449,1681.806h-35.6v35.753h35.6v-35.753Zm-5.077,5.1h-25.443v25.554h25.443v-25.554Z" transform="translate(-2138.851 -1681.806)"></path><path class="q" d="M2174.449,2346.552h-35.6v35.753h35.6v-35.753Zm-5.077,5.1h-25.443v25.553h25.443v-25.553Z" transform="translate(-2138.851 -2214.377)"></path><path class="q" d="M2838.506,1681.806h-35.6v35.753h35.6v-35.753Zm-5.077,5.1h-25.443v25.554h25.443v-25.554Z" transform="translate(-2670.87 -1681.806)"></path><path class="q" d="M2203.611,1733h-16.345V1748.4h16.345V1733Z" transform="translate(-2177.639 -1722.823)"></path><path class="q" d="M2203.611,2397.75h-16.345v15.393h16.345V2397.75Z" transform="translate(-2177.639 -2255.395)"></path><path class="q" d="M2867.667,1733h-16.346V1748.4h16.346V1733Z" transform="translate(-2709.657 -1722.823)"></path><path class="q" d="M2218.62,1817.16h-8v-15.893h-24.143v7.785h-7.706v-16.058h7.45v-7.571h-15.4v-7.705h7.826v-8.724h-7.826v-39.535l-15.738-.139.071-8.058,15.667.138v-.073h7.705v8.145h7.705v15.688h-7.705v8.147h7.826v15.469h7.965v8h-7.965v8.477h7.925v8h24.354v-7.5h-.044v-8.112h-7.971v-8.175h-15.8v-8.005h15.479v-7.836h8.3v-8.059h16.02v-15.9h8.058v7.839h8.068v-7.839h8.059v8.059h24.344v11.868h-16.324v11.635h7.6v16.52h-7.947v-16.067h-7.729v7.625h-8.008v7.96h7.855V1793.6h15.828v7.947h-15.828v-7.918h-7.948v-.029h-7.879v7.32h7.879v8.332h-8.058v-.073h-15.895v7.983h7.971v15.8h15.871v-7.5h-7.947v-8.332h8.058v-7.874h8.059v8.332h-8.059v7.874h24.121v8.332h-24.121v7.5h-.006v8.332h-7.947v-8.332h-16.279v-8.161h-7.823V1817.16Zm39.865,24.128h16.283v8.332h-16.283v-8.332Zm-55.637-8.068H2218.8v8.059h-8.441v7.7h-7.947v-7.7h-7.628v-32.23h8.058v24.171Zm-16.613.053h.242v7.7h-24.221v-7.7h16.273v-16.516h7.705v16.516Zm-15.652-16.781v-7.44h7.947v7.7H2170.9v8.067h-16.246v-8.332Zm103.839-7.242h-7.947v7.7h7.947v-7.7Zm-47.728-7.922v-7.559h-7.506v7.425h7.506v.135Zm-95.978-45.227v5.141h5.057v-.047h10.948v8.131h-8.058v8.219h23.708v7.947h-7.358v15.836h-8.131v-15.836h-8.219v-7.947h-7.947v-16.067h-7.729v7.625h-8.007v7.96h7.855v16.318h15.827v7.947h-15.827v-7.918h-7.948v-.029h-8.058v-8.332h8.058v-7.834h-7.967v-8.332h8.007v-7.4h-.052l.1-16.117h-16.127V1737.3h16.127v-7.839h8.058v8.058h16.108v-8.288h8.058v.229h7.882v7.728h7.528v32.134h-7.947v-31.731h-7.286v11.8h-16.648v6.711Zm40.109,36.893h-7.947v7.705h7.947v-7.705Zm55.869-7.23v7.446h15.895v-7.446Zm7.948-32.128h7.884v8.058h-31.646v7.625h23.828v8.112h7.972v7.834h7.966v-7.834h-7.966V1769.1h8.007v-7.4h-.053l.1-16.117H2234.73v8.059Zm-79.973-39.954h7.947V1689.54h-7.947v24.143Zm63.643-16.05h-7.947v7.705h7.947v-7.705Zm7.948-7.961h-7.948v7.705h7.948v-7.705Zm-15.894-.289h-7.947v7.705h7.947v-7.705Zm-16.425,0v16.172l16.425-.217-.061,8.325,8.5-.037v15.066h8.059v8.739H2218.8v8.119h-15.958v8.058h-8v-24.122h8v8.058h7.9l-.444-23.882h-7.455v7.953h-11.9v-.006h-4.781v-8.055h-15.344v-24.172h-8.189v-7.7h15.894v15.954h7.639v-8.308h7.771v-7.646h7.947v7.7Z" transform="translate(-2106.805 -1681.704)"></path></g></g><g transform="translate(1263.978 1087.688)"><g class="e" transform="translate(0)"><path class="y" d="M1877.584,2838.347c-.663.35-1.267.937-1.893,1.352a46.366,46.366,0,0,1-4.253,2.489c-.484.251-.981.479-1.466.73-.053.028-.328.142-.3.249.038.14.4.195.51.223a12.16,12.16,0,0,0,1.782.331,7.789,7.789,0,0,0,6.446-2.162l-.828-3.212Z" transform="translate(-1749.238 -2520.61)"></path><path class="y" d="M1551.95,2178.531c-.543,0-1.128.168-1.67.222a33.417,33.417,0,0,1-3.565.147c-.4,0-.79-.027-1.186-.031-.043,0-.258-.021-.275.058-.023.1.192.262.25.316a8.719,8.719,0,0,0,1.027.816,5.639,5.639,0,0,0,4.856.806l.562-2.334Z" transform="translate(-1489.325 -1991.99)"></path><path class="y" d="M3533.774,2191.458c.543,0,1.128.168,1.67.222a33.43,33.43,0,0,0,3.566.147c.4,0,.79-.027,1.185-.031.043,0,.258-.021.275.058.023.1-.193.262-.25.317a8.8,8.8,0,0,1-1.027.816,5.639,5.639,0,0,1-4.856.807l-.562-2.335Z" transform="translate(-3082.458 -2002.346)"></path><path class="y" d="M3176.732,2733.126c.734.154,1.476.553,2.192.78a46.131,46.131,0,0,0,4.774,1.224c.535.109,1.075.191,1.61.3.058.012.354.047.356.157,0,.145-.336.3-.43.355a12.164,12.164,0,0,1-1.622.807,7.788,7.788,0,0,1-6.792-.307l-.087-3.316Z" transform="translate(-2796.409 -2436.311)"></path><path class="q" d="M2761.161,2769.3l5.395-1.159.134.623-5.706,1.226a.319.319,0,0,1-.379-.245l-1.12-5.211.623-.134,1.053,4.9Zm19.965-9.416,1.12,5.211a.319.319,0,0,1-.244.378l-5.707,1.226-.134-.623,5.394-1.159-1.052-4.9.623-.134Zm-9.482-14.825,5.706-1.226a.318.318,0,0,1,.378.244l1.333,6.2-.623.134-1.266-5.889-5.395,1.159-.134-.623Zm-9.605,2.064.134.623-5.395,1.16,1.265,5.889-.623.134-1.333-6.2a.319.319,0,0,1,.245-.379l5.706-1.226Z" transform="translate(-2459.398 -2444.885)"></path><path class="q" d="M2335.134,2718.3l4.448.89-.1.514-4.7-.942a.262.262,0,0,1-.205-.308l.86-4.3.514.1-.808,4.04Zm18.137-.571-.86,4.3a.262.262,0,0,1-.309.206l-4.7-.942.1-.514,4.448.89.808-4.039.514.1Zm-2.3-14.283,4.7.942a.262.262,0,0,1,.206.308l-1.023,5.113-.514-.1.972-4.856-4.448-.89.1-.514Zm-7.919-1.585-.1.514-4.448-.89-.972,4.855-.514-.1,1.023-5.113a.263.263,0,0,1,.309-.206l4.7.942Z" transform="translate(-2121.693 -2410.502)"></path><path class="ar" d="M2791.136,2763.726l-14.7,3.158,3.158,14.7,14.7-3.158-3.159-14.7Z" transform="translate(-2475.709 -2460.827)"></path><path class="ar" d="M2366.065,2719.435l-12.116-2.425-2.425,12.116,12.117,2.425,2.425-12.116Z" transform="translate(-2135.281 -2423.4)"></path></g></g><path class="as" d="M3679.837,1705.319h0a1.777,1.777,0,1,1,0,3.524h-26.385a1.777,1.777,0,1,1,0-3.524h26.385Z" transform="translate(-1912.755 -525.18)"></path><path class="as" d="M1733.392,1397.115h0a1.777,1.777,0,1,0,0-3.524h-26.385a1.777,1.777,0,1,0,0,3.524h26.385Z" transform="translate(-353.332 -275.434)"></path><path class="as" d="M3500.582,1638.469h0a1.777,1.777,0,1,0,0,3.524h26.385a1.777,1.777,0,1,0,0-3.524h-26.385Zm31.3,0h0c-.238.019-.43.8-.43,1.762s.192,1.743.43,1.762h5.663c.238-.019.43-.8.43-1.762s-.192-1.743-.43-1.762h-5.663Z" transform="translate(-1790.281 -471.622)"></path><path class="as" d="M1554.137,1463.965h0a1.777,1.777,0,1,1,0-3.524h26.385a1.777,1.777,0,1,1,0,3.524h-26.385Zm31.3,0h0c-.238-.019-.43-.8-.43-1.762s.192-1.743.43-1.762h5.663c.239.019.43.8.43,1.762s-.192,1.743-.43,1.762h-5.663Z" transform="translate(-230.859 -328.992)"></path><path class="as" d="M2616.576,1279.969h0a1.777,1.777,0,1,1,0-3.524h26.385a1.777,1.777,0,1,1,0,3.524h-26.385Zm31.3,0h0c-.238-.019-.43-.8-.43-1.762s.192-1.743.43-1.762h5.663c.239.019.43.8.43,1.762s-.192,1.743-.43,1.762h-5.663Z" transform="translate(-1082.047 -181.581)"></path><path class="as" d="M2530.176,1054.518v-3.882h0c.018-.464.742-.838,1.632-.838s1.615.374,1.633.838h0v3.882h3.794c.465.018.839.742.839,1.633s-.374,1.615-.839,1.632h-3.794v3.881h0c-.018.464-.743.838-1.633.838s-1.614-.374-1.632-.838h0v-3.881h-3.969c-.464-.018-.839-.742-.839-1.632s.374-1.615.839-1.633h3.969Z" transform="translate(-1010.581 0)"></path><path class="as" d="M1410.665,1663.868v-3.882h0c.018-.464.742-.838,1.632-.838s1.615.374,1.632.838h0v3.882h3.794c.464.018.838.742.838,1.633s-.374,1.615-.838,1.632h-3.794v3.881h0c-.018.464-.743.838-1.632.838s-1.615-.374-1.632-.838h0v-3.881H1406.7c-.464-.018-.838-.742-.838-1.632s.374-1.615.838-1.633h3.969Z" transform="translate(-113.669 -488.19)"></path><path class="as" d="M3358.655,1406.3a6.353,6.353,0,1,1,6.353-6.353,6.356,6.356,0,0,1-6.353,6.353Zm0-3.254a3.1,3.1,0,1,0-3.1-3.1,3.1,3.1,0,0,0,3.1,3.1Z" transform="translate(-1673.091 -275.434)"></path><path class="as" d="M2312.767,1151.076a6.353,6.353,0,1,0,6.353,6.353,6.356,6.356,0,0,0-6.353-6.353Zm0,3.254a3.1,3.1,0,1,1-3.1,3.1,3.1,3.1,0,0,1,3.1-3.1Z" transform="translate(-835.163 -81.14)"></path></g></g></svg>